<?xml version="1.0" encoding="UTF-8"?>
<svg width="39.29" height="45" clip-rule="evenodd" fill-rule="evenodd" stroke-linejoin="round" stroke-miterlimit="2" version="1.1" viewBox="0 0 110 126" xml:space="preserve" xmlns="http://www.w3.org/2000/svg" xmlns:cc="http://creativecommons.org/ns#" xmlns:dc="http://purl.org/dc/elements/1.1/" xmlns:rdf="http://www.w3.org/1999/02/22-rdf-syntax-ns#"><metadata><rdf:RDF><cc:Work rdf:about=""><dc:format>image/svg+xml</dc:format><dc:type rdf:resource="http://purl.org/dc/dcmitype/StillImage"/><dc:title/></cc:Work></rdf:RDF></metadata>
    <g transform="translate(-147.2 -243.71)">
        <g transform="matrix(.90024 0 .18274 .79581 -179.78 210.87)">
            <path d="m404.43 149.12c0-9.208-6.609-16.684-14.75-16.684h-52.981v50.054c0 9.208 6.608 16.684 14.749 16.684h52.982z" fill="#16006d"/>
        </g>
        <g transform="matrix(.65488 0 .15522 .67597 1.9799 164.68)">
            <path d="m310.42 131.83h-80.165c-14.949 0-27.085 11.758-27.085 26.24v131.18h80.164c14.949 0 27.086-11.758 27.086-26.24z" fill="#3843d0"/>
        </g>
        <g transform="matrix(.78314 0 .17682 .77003 -95.074 142.06)">
            <path d="m404.43 149.12c0-9.208-7.351-16.684-16.406-16.684h-51.325v50.054c0 9.208 7.35 16.684 16.405 16.684h51.326z" fill="#6ad2b9" fill-opacity=".84"/>
        </g>
    </g>
</svg>
