<svg xmlns="http://www.w3.org/2000/svg" id="Layer_1" width="294.166" height="260.166" x="0" y="0" enable-background="new 0 0 316 316" version="1.1" viewBox="14.507 38.297 294.166 260.166" xml:space="preserve"><g id="Seo_Link"><path fill="#7d7dff" d="M85.3369751,281.9296265h145.3320313c25.5966797-21.0178223,41.9312744-52.9022217,41.9312744-88.6108398      c0-63.286377-51.3094482-114.5958252-114.5958252-114.5958252c-63.2952881,0-114.6047363,51.3094482-114.6047363,114.5958252      C43.3997192,229.0274048,59.7341919,260.9118042,85.3369751,281.9296265z"/><path fill="#3e3ad8" d="M285.7678528,284.2834778L285.7678528,284.2834778          c0,1.2999878-1.0538635,2.3538208-2.3538513,2.3538208H30.2316799c-1.2999897,0-2.3538399-1.053833-2.3538399-2.3538208l0,0          c0-1.3000183,1.0538502-2.3538513,2.3538399-2.3538513h253.1823273          C284.7139893,281.9296265,285.7678528,282.9834595,285.7678528,284.2834778z"/><path fill="#fec6b9" d="M128.2055054,118.6003571c-0.0700073,0.0269699-0.1411896,0.0538254-0.21138,0.0802994            c-15.8839417,5.962822-32.7488861-5.6367722-33.458931-6.1337509            c-2.4477234-1.7127991-3.0438843-5.0854645-1.3317566-7.5334702            c1.709549-2.4458771,5.0764847-3.0437622,7.52314-1.3396149            c0.194313,0.1340485,13.0066986,8.8353729,23.5014954,4.8637238            c0.0266266-0.0102539,0.0544205-0.020401,0.0810394-0.0306549            c6.3939362-2.4631805,11.0507813-9.4412918,13.842514-20.7434769            c0.7164154-2.901741,3.6491852-4.6707153,6.5495758-3.9549026            c2.8996124,0.7166824,4.6710663,3.6484756,3.9542694,6.5492249            C144.9660797,105.2932968,138.0867767,114.7937241,128.2055054,118.6003571z"/><path fill="#fff" d="M125.9371109 87.5318604c1.0981064.8388367 2.5969315.857666 3.7102585.1019363-2.3659058-1.635994-4.4544144-3.4264908-6.2010727-5.4101334-.8376923-.9513474-1.8645248-2.5357208-2.651207-3.8373947-.6167068.983223-.6590729 2.251297-.0469437 3.293457C122.1083298 83.9587631 123.8376541 85.9127655 125.9371109 87.5318604zM138.8832245 78.8905182c.2700958.1844406.470108.4215469.6059723.6881943 4.1613007-2.1098862 10.918869-4.1791077 16.0534973-5.969223.4688263-.161293.5027008-.3168564.5532379-.361351l-.0303955.0267639c-1.7912598 1.5772552-7.6374054-1.8276443-13.0652008-7.6042709-4.4255524-4.7096558-7.2048798-9.5392151-7.1041565-12.0265579-.8901215 4.9881783-4.2956543 11.0682526-6.6804504 14.7672119.4304047.1420822.812027.452919 1.0367126.901886C132.1494141 73.1408997 135.0979767 76.2852631 138.8832245 78.8905182z"/><path fill="#ff6464" d="M123.4462967,82.2236633c1.908905,2.1679001,4.2256241,4.1056137,6.859642,5.85746            c0.6969757,0.4635468,1.62146,0.3928986,2.2293701-0.1825104l6.5861206-6.2339172            c0.8318634-0.787384,0.7064514-2.1296387-0.2375336-2.7783661            c-3.7828674-2.5996246-6.7314758-5.7441635-8.6315613-9.574913            c-0.5335693-1.0757294-1.949646-1.3335953-2.8215256-0.5079269l-6.8595505,6.4960403            c-0.6020279,0.5701218-0.7339706,1.4800644-0.3138504,2.1949005            C121.0627899,78.8647842,122.4051208,81.0412216,123.4462967,82.2236633z"/><path fill="#fff" d="M134.0825195,86.4280243l6.6517639,6.9982452            c1.2452545,1.310112,3.3167877,1.3626938,4.6269073,0.1174469h0.0000153            c1.3101196-1.2452469,1.3627014-3.3167725,0.1174469-4.6268845l-6.6517639-6.9982452L134.0825195,86.4280243z"/><path fill="#ff6464" d="M143.0012665,65.6677475c5.4285736,5.7768478,11.2765198,9.1854019,13.0679016,7.6080399            c1.7862091-1.5727921-1.167099-7.5301514-6.5956726-13.3069954            c-5.4285431-5.7768135-11.2765198-9.1854019-13.0627136-7.612606            C134.6193848,53.9335442,137.5727234,59.8909302,143.0012665,65.6677475z"/><path fill="#fff" d="M143.8802643,64.8937759c3.9540558,4.2077408,8.2135925,6.6904678,9.5184021,5.5415497            c1.3010406-1.1455917-0.8500977-5.4848175-4.8041687-9.6925621            c-3.9540405-4.2077179-8.2135925-6.6904678-9.5146332-5.5448761            C137.7750549,56.3468056,139.9262085,60.6860542,143.8802643,64.8937759z"/><path fill="#f04f4a" d="M139.9007721,59.6407013c-0.5000916-1.3025093-0.5419312-2.2988167-0.0105743-2.7666931            c1.3005524-1.1451683,5.5617218,1.3375053,9.5125122,5.5488396            c1.7094421,1.8188057,3.0827026,3.6641121,3.9889832,5.2647591            c-0.7302399-1.8904343-2.4456329-4.4406166-4.7946777-6.9449806            c-3.9557343-4.2069778-8.2170258-6.6895447-9.5175781-5.5443802            C138.3355713,55.8532333,138.7112579,57.5347977,139.9007721,59.6407013z"/><path fill="#f04f4a" d="M143.8808441,64.8953323c0.7381134,0.7874527,1.4946289,1.5138474,2.2362213,2.1724625            c0.4992371-0.1880188,0.9506378-0.4507751,1.315094-0.7716904            c1.4066772-1.2386093,0.9462433-2.8634758-0.2924652-4.2702637            c-1.2431641-1.4118233-2.7967377-2.0742073-4.2034149-0.835598            c-0.414978,0.365406-0.771225,0.8587837-1.0353394,1.4057465            C142.4932556,63.3501205,143.1559601,64.1231537,143.8808441,64.8953323z"/><path fill="#fec6b9" d="M141.1540833,87.6940536l0.795929,7.2361526l-5.0757446,0.5567856l-0.7959137-7.2361526            c-0.1541748-1.4016113,0.8570862-2.6624832,2.2587128-2.8162384h0.0000153            C139.7387085,85.2808533,140.9999237,86.2924423,141.1540833,87.6940536z"/><g><path fill="#fec6b9" d="M97.5897522 232.9326172h10.1616974l-12.3809891-80.5937805c-.421814-2.741333-2.9906158-4.6175385-5.725914-4.2017059-2.7414017.4217529-4.6223755 2.9855194-4.2015839 5.7258453L97.5897522 232.9326172zM66.2019806 232.9326172l15.1335907-80.5192566c.511673-2.7256165-1.2819901-5.3511353-4.0078583-5.8631287-2.726387-.5129395-5.3511963 1.2818604-5.8628769 4.0074158l-15.4818344 82.3749695H66.2019806z"/><path fill="#fff" d="M107.7504578 232.9326172l6.1762619 40.2039185c.4212418 2.7403259-1.4594116 5.3040771-4.2007141 5.7258301-.2584381.0392151-.5149078.0588379-.7689362.0588379-2.4362717 0-4.5753708-1.7771912-4.9568939-4.2605286l-6.4104233-41.7280579H107.7504578zM55.9826088 232.9326172h10.2193718l-7.1758652 38.1815186c-.4536171 2.4117737-2.5613251 4.0947876-4.9294357 4.0947876-.3079643 0-.6203461-.0284424-.9332161-.0872803-2.7256088-.5119629-4.5199547-3.1375427-4.0079842-5.8631287L55.9826088 232.9326172z"/><path fill="#3f3f3f" d="M62.4547729,198.4991302h10.213974l2.5226517-13.4149933                   c0.6804047-3.6182709,3.8404617-6.2394867,7.5221558-6.2394867h0.0000153                   c3.7779007,0,6.9907227,2.7564545,7.5650406,6.4904327l2.0247421,13.1640472h10.153717l-7.0905304-46.1587524                   c-0.4217987-2.7417908-2.9828796-4.6195068-5.7246704-4.1977692s-4.619873,2.9825745-4.1980743,5.7243652                   l0.4720078,3.0433807h-5.4233246l0.8435974-4.4993591                   c0.5122223-2.7216949-1.2854996-5.3531342-4.0072479-5.8651123                   c-2.7317352-0.5021667-5.3530045,1.2853241-5.8652267,4.0070038L62.4547729,198.4991302z"/><g><path fill="#ff6464" d="M128.1695404,280.3606873c-0.2505188,0.9367981-1.1313782,1.5706177-2.0943604,1.5689392                    l-20.8656845-0.055481c-1.2121277-0.0050659-2.1730042-0.9809875-2.1792984-2.1931763l0.0397339-11.3276672                    l7.6333313,0.137207c2.4323273-4.7816162,5.6869431-1.6903076,6.6979065-1.0536194                    c2.3475189,1.481781,4.1598358,4.0210876,8.4899139,7.1609497                    C128.549942,276.5255432,128.5524139,278.8591919,128.1695404,280.3606873z"/></g><g><path fill="#ff6464" d="M34.4475327,280.3606873c0.2505112,0.9367981,1.1313705,1.5706177,2.0943565,1.5689392                    l20.8656845-0.055481c1.2121277-0.0050659,2.1730042-0.9809875,2.1792946-2.1931763l-0.0397301-11.3276672                    l-7.6333351,0.137207c-2.4323273-4.7816162-5.6869431-1.6903076-6.6979027-1.0536194                    c-2.3475227,1.481781-4.1598358,4.0210876-8.4899178,7.1609497                    C34.0671272,276.5255432,34.0646553,278.8591919,34.4475327,280.3606873z"/></g><g><path fill="#2dc168" d="M54.2587776,112.3439102l9.6922417,0.5198975v54.1850662h36.3657761L97.30513,114.9843826                  c2.0860138,1.0175781,5.8065414,2.7347488,11.0900803,3.9459915l4.6457672-9.9597931                  c-9.6374512-3.3685074-12.6952591-6.405304-18.6890106-7.8272476                  c-7.3364716-1.7659302-14.8244553-2.3641586-22.2156677-2.1292877                  c-4.5091782,0.1203613-7.9303513,0.2422638-11.4694443,2.5608292                  C56.187603,104.5079193,57.9849091,108.7081375,54.2587776,112.3439102z"/></g><g><path fill="#fff" d="M72.0258331,100.2493439c0,4.1879578,3.354538,7.5726547,7.5022812,7.5726547                  c4.1379395,0,7.4922333-3.384697,7.4922333-7.5726547c0-0.1706543-0.0100555-0.3315048-0.0300369-0.4918594                  c-4.8407974-0.672821-9.7921753-0.9042892-14.8540115-0.7434387                  C72.0559921,99.4156799,72.0258331,99.8276062,72.0258331,100.2493439z"/></g><g><path fill="#fec6b9" d="M75.6012955,97.979805c0,5.0515442,1.9181671,7.2107391,4.2784348,7.2107391                  c4.6279831,0,4.7416534-7.2271347,3.7863235-11.8807526                  c-1.1852798,0.5521774-2.4606705,0.8635788-3.7863235,0.8635788                  c-1.3358307,0-2.6113434-0.3114014-3.7863312-0.853775                  C75.7820053,94.8358917,75.6012955,96.4532089,75.6012955,97.979805z"/></g><g><path fill="#efa89c" d="M78.794342,95.9582443c2.1257095-0.0527954,4.0581512,1.5353546,4.0581512,3.8090439                  c0,1.9988403-0.3013458,3.5352478-0.8135605,4.6700134                  c2.6434326-2.1184311,2.3073273-7.8140793,1.627121-11.1275101                  c-1.1852798,0.5521774-2.4606705,0.8635788-3.7863235,0.8635788                  c-1.3358307,0-2.6113434-0.3114014-3.7863312-0.853775                  c-0.1407394,0.7032242-0.2611313,1.4363632-0.3415527,2.1695023                  c0.8938599,0.3011017,1.8480453,0.471756,2.8322601,0.471756                  C78.6543274,95.9608536,78.724411,95.9599838,78.794342,95.9582443z"/></g><g><path fill="#fec6b9" d="M58.8849754,82.3176422c-0.480442,2.4915466,1.1526184,4.9049377,3.6442223,5.3853912               c1.1614761,0.2239685,2.3048248-0.0121994,3.2418594-0.5892639               c2.2499847,3.6981201,6.4300156,6.2042923,11.7128448,7.2229767               c9.2169647,1.777298,18.3176117-1.6362686,20.0931015-10.8438568s-4.4424896-20.7434006-13.6594467-22.5206947               c-9.2075272-1.7754784-17.9202423,6.8812675-19.6957321,16.0888557               c-0.102951,0.5339127-0.1854019,1.0620575-0.2361107,1.5768738               C61.5964127,78.3326721,59.3473625,79.9197464,58.8849754,82.3176422z"/><path fill="#191919" d="M97.7571259,78.0862808c0,0,1.452179-6.0221939-0.8202209-10.380127               c0,0,3.4969406-1.7579117,4.8166122-5.3381157c1.4706726-3.9898491-2.4228287-7.824131-6.5071411-6.6408348               c-0.3930054,0.1138573-0.8214569,0.1916046-1.2879028,0.2218208c0,0-0.8877258-2.2014046-3.483223-4.5393333               c-2.2732544-2.0476608-5.8468552-1.5837288-7.6240082,0.9067192               c-0.4182205,0.5860825-0.8939133,1.0737495-1.4189835,1.3324852c0,0-23.2081909-9.3346024-24.4568596,19.812767               c0,0,0.6165657,7.187355,1.840744,10.0232162c0,0,1.331749-7.7922821,8.9997444,0.3047333l0,0               c0.9352341-0.7238235,1.2949066-1.9694214,0.889473-3.0803604l-0.9878998-2.706955               c0,0,3.557991-4.5964966,3.0681458-11.1879196c0,0,15.8569336,6.0816345,23.3363647,1.4426575               C95.6740417,70.3039703,96.7433167,74.0878906,97.7571259,78.0862808z"/><path fill="#fff" d="M78.9679947,83.8358383c0.9630127,3.8961334,3.3412399,7.3536987,7.3596039,7.294754               c3.7276917-0.0633698,5.5377884-2.5443497,5.5028763-6.1734619               c-0.006897-0.3312302-0.2869492-0.5894775-0.6089859-0.5494537               c-1.5221405,0.1542358-5.9013443,0.3780823-11.5516739-1.2377472               C79.2529526,83.0502853,78.8605347,83.4144974,78.9679947,83.8358383z"/></g></g><g><path fill="#191919" d="M80.6581955,75.7703323c0,0.8046799-0.6536636,1.4482803-1.4482803,1.4482803          c-0.7946091,0-1.4482727-0.6436005-1.4482727-1.4482803c0-0.7946167,0.6536636-1.4382095,1.4482727-1.4382095          C80.0045319,74.3321228,80.6581955,74.9757156,80.6581955,75.7703323z"/></g><g><path fill="#191919" d="M92.7502365,76.7799911c0,0.8046875-0.6536636,1.4482803-1.4482727,1.4482803          c-0.7946167,0-1.4482803-0.6435928-1.4482803-1.4482803c0-0.7946091,0.6536636-1.4382095,1.4482803-1.4382095          C92.0965729,75.3417816,92.7502365,75.9853821,92.7502365,76.7799911z"/></g><g><path fill="#f9bd96" d="M223.9719238,105.9005432c-4.8789063,0-7.8393555-2.9609985-8.902832-6.5652466        c-6.0456543,8.6741333-18.4147949,17.758606-43.708252,19.8481445        c-3.2580566,0.269104-5.6804199,3.1276855-5.4106445,6.3851929c0.2687988,3.2580566,3.1271973,5.6807861,6.3847656,5.4108276        c19.4748535-1.6083374,32.5466309-7.1101685,41.3041992-13.5372314        c5.1040039-3.7459717,8.7294922-7.8018799,11.3181152-11.5900879        C224.6367188,105.8800354,224.3110352,105.9005432,223.9719238,105.9005432z"/></g><g><path fill="#fff" d="M187.0275879,133.6907654c-1.2828064-8.4170609-9.1341095-14.1954422-17.5537109-12.9101563       l-10.1435547,1.5463867c-7.0654297,1.0769653-12.267334,6.824585-12.9853516,13.6212158l-0.7416992,0.1130371       c-2.7368164-6.2183838-9.3835449-10.1094971-16.4125977-9.0379639l-10.1435547,1.5463867       c-8.3994141,1.2802734-14.1904297,9.1552734-12.9101563,17.5546875       c1.302475,8.5460968,9.2722778,14.1755219,17.5537109,12.9101563l10.1445313-1.546875       c7.0290527-1.0715332,12.2145996-6.7667847,12.973877-13.5182495l0.7785645-0.1187134       c2.4516602,5.475769,7.9536133,9.1184082,14.0541992,9.1184082c0.7695313,0,1.5488281-0.0581055,2.3320313-0.1777344       l10.1435547-1.5463867C182.5322418,149.9626465,188.3131104,142.1113434,187.0275879,133.6907654z M132.630127,149.5794373       l-10.1445313,1.546875c-4.040947,0.6136169-7.8208084-2.1511536-8.4404297-6.2070313       c-0.6152344-4.0385742,2.1689453-7.8256836,6.2070313-8.4414063l10.1435547-1.5463867       c0.3769531-0.0571289,0.7519531-0.0849609,1.1220703-0.0849609c2.1645508,0,4.168457,0.9584351,5.5463867,2.5166626       l-2.3823242,0.3632202c-2.1845703,0.3330078-3.6845703,2.3730469-3.3515625,4.5571289       c0.3017578,1.9794922,2.0058594,3.3974609,3.9492188,3.3974609c0.2001953,0,0.4033203-0.0151215,0.6074219-0.0463867       l2.3842773-0.3635254C137.2751465,147.4937439,135.2116699,149.1858215,132.630127,149.5794373z M172.9123535,143.3367615       l-10.1435547,1.5463867c-2.5422363,0.3857422-4.980957-0.5731812-6.5949707-2.3415527l1.9006348-0.2897949       c2.1845703-0.3330078,3.6845703-2.3730469,3.3515625-4.5571289c-0.3330078-2.1835938-2.3701172-3.6845703-4.5566406-3.3510742       l-2.020752,0.3081055c0.9772949-2.2755127,3.0639648-4.0166016,5.6867676-4.4165039l10.1435547-1.5463867       c4.0666809-0.6183929,7.8245087,2.1753845,8.4404297,6.2070313v0.0004883       C179.7357635,138.9441833,176.9596558,142.7194672,172.9123535,143.3367615z"/></g><g><path fill="#fec6b9" d="M83.4456329,162.3617554c-4.897171,0-9.662468-0.3434601-13.9957275-0.7007141        c-4.3243942-0.3567657-8.2275658-0.757309-12.2055397-2.0509949        c-5.0644836-1.6464996-9.0975647-4.4902191-11.6642532-8.2231293        c-2.6729774-3.8884125-3.9071121-8.988327-3.6659927-15.1590118        c0.4536972-11.56633,5.5378647-22.9156494,13.9475021-31.1392899c1.9899712-1.9451904,5.1806145-1.911232,7.126297,0.0797195        c1.9456825,1.9894791,1.9092674,5.1796265-0.0797157,7.1253128        c-6.5879631,6.4423065-10.56987,15.3095779-10.9241676,24.3284073        c-0.1545105,3.9499359,0.4851913,6.9973755,1.9004135,9.0557404c1.2803879,1.8625336,3.580368,3.4071655,6.4767494,4.3485107        c2.9455872,0.9575958,6.2336655,1.2872772,9.9173737,1.5913849        c6.8674622,0.5668793,14.1669693,1.0530548,21.2942505,0.2475128        c7.4146576-0.8360291,13.6414337-2.9928131,18.5080948-6.4098206        c2.2763596-1.5987701,5.4197693-1.0496063,7.0190277,1.2277374c1.5992584,2.277832,1.0491104,5.4202576-1.2282333,7.019516        c-6.2631912,4.3982086-14.0587158,7.1494293-23.169075,8.1768799        C89.6153336,162.2279205,86.5044022,162.3617554,83.4456329,162.3617554z"/></g><g><path fill="#2dc168" d="M62.1500893,100.734375c2.7159615-0.4032898,4.51688,11.7261353,1.8009262,12.129425        c-2.604496,1.1345367-5.8072243,5.5353165-7.882,8.6494293l-7.7229156-6.8272324        C51.0121727,109.2504349,57.1487503,103.1138077,62.1500893,100.734375z"/></g><g><path fill="#f9bd96" d="M271.6888428,205.3547974c1.5794373,0,3.1420898-0.2627106,4.69104-0.7870941          c22.0849609-7.4621735,9.2654724-54.1867218,6.4712219-63.4774017          c-0.9405212-3.128418-4.2381287-4.8991241-7.3696899-3.9627991          c-3.1294861,0.9405212-4.9054565,4.2402344-3.9659729,7.3697052          c6.3430176,21.1370544,8.3438416,46.4008636,1.0750427,48.8567352          c-2.4380188,0.8343811-9.4451599-2.6366119-20.2217712-20.8449249          c-7.7333069-13.0664368-13.425827-27.0177002-13.4825745-27.1574554          c-1.2284546-3.0275421-4.680542-4.486145-7.7101898-3.2566376          c-3.0285797,1.2295227-4.4861298,4.6815948-3.2566223,7.7101898          c0.2438049,0.6021423,6.0845032,14.9149017,14.2633667,28.7327118          C252.8237305,196.5159912,262.5274048,205.3547974,271.6888428,205.3547974z"/><path fill="#f9bd96" d="M229.1099548,276.3973694c0.0367737,0,0.0735626,0,0.1113892-0.0010681          c3.2681885-0.0598755,5.8680267-2.7585144,5.8081207-6.0266724l-2.1458588-116.2738342          c-0.059906-3.2303619-2.6975708-5.8091736-5.9153137-5.8091736c-0.0367737,0-0.0735626,0-0.1113892,0.0010529          c-3.2681885,0.0598907-5.8680267,2.7585144-5.8081207,6.0266876l2.1458588,116.2738342          C223.2545471,273.8185425,225.8922119,276.3973694,229.1099548,276.3973694z"/><path fill="#fff" d="M271.5167236 144.5012054c2.5070801 8.3611908 4.3366394 17.3678894 5.1757507 25.3523407.0754089.6888428.1400146 1.3666534.1938782 2.0339508.0966797 1.0114594.1613159 1.9906006.2151794 2.9592285.0430908.6993561.0646057 1.3774261.085907 2.0444489.0430908 1.345108.0430908 2.6363525 0 3.8632355h11.8479614c.0428162-1.2699585.0535889-2.561203.0320435-3.8632355-.010498-.6777954-.0320435-1.3558655-.0643616-2.0444489-.0430908-.9901733-.0969543-1.9693146-.1723328-2.9592285-.0538635-.6780701-.1074524-1.3558807-.1720886-2.0339508-1.1838074-12.5254974-4.5410461-24.5347748-5.8107605-28.7637024-.9363098-3.1313171-4.2399597-4.9067383-7.3712769-3.9599152C272.3560791 138.0662384 270.5803833 141.3696289 271.5167236 144.5012054zM222.4471741 230.1788788l.064621 3.2282562.0323181 2.0336914.0535889 2.9592285.0430908 2.0447083.5488129 30.1411438c.0646362 3.228241 2.7009888 5.81073 5.918457 5.81073h.1184845c3.2605743-.0646362 5.8646088-2.7548218 5.7999878-6.0259094l-.5488129-29.9259644-.0430908-2.0447083-.0535889-2.9592285-.0323181-2.0336914-.064621-3.2282562H222.4471741zM221.0482025 154.3196716l.6134491 33.1326752h11.8369293l-.3155823-16.98909c-.021759-1.1715393.9219666-2.1329498 2.0937042-2.1329498l0 0c.779068 0 1.487793.4274139 1.8495331 1.1174164 1.5466919 2.9502106 3.2422028 6.0393677 5.0564117 9.0946198l9.4265137-7.338974c-7.338974-12.6655273-12.6655426-25.7183075-12.7193909-25.8475647-1.2373962-3.0343628-4.681076-4.4871826-7.7154388-3.2602997-2.5396729 1.0330048-3.9709473 3.6262665-3.6372986 6.2195282-.1936188-.0215302-.3764801-.0320435-.5703583-.0320435h-.1074524C223.5878906 148.3473511 220.9835815 151.0483398 221.0482025 154.3196716z"/><path fill="#ff6464" d="M243.1829071,146.0324097l-25.9929199,12.7824097          c-1.2374878-16.348114-7.4609528-55.6639633-1.9528961-59.6612625l6.9429169-5.4102478          c0,0,16.1269684-3.9088058,19.4334717,25.3259354L243.1829071,146.0324097z"/><path fill="#f9bd96" d="M218.3238068,91.4634933l-0.2816772,5.5992813l1.5668335,3.5481567l5.9754944-6.9829559          l0.2784271-5.534996C224.1571045,90.5177078,221.4538574,91.5670242,218.3238068,91.4634933z"/><path fill="#f6a47d" d="M218.3288269,91.3634415l-0.1275787,2.5362015          c1.3606567-0.0608368,2.6227264-0.3583221,3.7360992-0.9124222          c1.2487793-0.6214905,2.7082367,0.2445755,2.6381531,1.6377029l-0.0045776,0.0909805l1.0185699-1.1879807          l0.2784271-5.534996C224.1621399,90.4176559,221.4588928,91.4669647,218.3288269,91.3634415z"/><path fill="#f9bd96" d="M208.8430176,80.5243607l-0.0156708,0.3117142          c-0.1157074,2.3000641,0.2732544,4.2051544,1.036972,5.7303238c1.565033,3.1603317,4.697403,4.7186356,8.2117767,4.8954163          c5.2337646,0.2632828,9.3336182-2.633667,9.6877289-9.673172          c0.3541107-7.0392456-3.1705017-15.5777969-8.4042664-15.8410721          C214.2115936,65.6886139,209.3227081,73.5561447,208.8430176,80.5243607z"/><path fill="#2f2f2f" d="M215.7428284,69.0889435c-3.7162018,0.6775742-9.8481445-2.404808-7.1026001-9.9003181          c2.8080444-7.6661263,29.5308533-2.258522,24.7694855,10.1025276c0,0,6.0400238,1.8174362,1.3843536,6.6325531          c-4.6556854,4.8151093-7.5740509,9.1813431-7.5740509,9.1813431s1.2736969-9.0607147-0.9211426-10.1478882          c-1.3348999-0.6612244-2.640686,1.5821304-3.4568939,2.1232224          c-1.5206299,1.0080566-4.0961304-1.1037064-2.061615-5.1156158          C223.6062622,66.3923264,217.1694641,68.8288269,215.7428284,69.0889435z"/><path fill="#f9d210" d="M235.680481,279.879425h-25.8714752c0.0320587-4.96521,3.8439026-9.2898865,8.9688416-9.8023682            l2.9629974-0.3202515l1.3096619-3.5556946h11.9253235L235.680481,279.879425z"/><path fill="#fff" d="M236.8057251,280.9045105L236.8057251,280.9045105            c0,0.5661621-0.4589539,1.025116-1.0251007,1.025116h-26.0077362c-0.5661469,0-1.0251007-0.4589539-1.0251007-1.025116            l0,0c0-0.5661316,0.4589539-1.0250854,1.0251007-1.0250854h26.0077362            C236.3467712,279.879425,236.8057251,280.3383789,236.8057251,280.9045105z"/><path fill="#f9d210" d="M269.2208862,136.4214478l25.2445984-5.6607056            c1.0550842,4.8519135-1.7181396,9.905838-6.606781,11.5272217l-2.8211365,0.9608002l-0.5797424,3.7740021            l-11.5565491,2.5913696L269.2208862,136.4214478z"/><path fill="#fff" d="M267.8985901,135.6673889v-0.0000153c-0.1238708-0.5524292,0.2235413-1.1006775,0.7759705-1.2245483            l25.3775635-5.6905212c0.5524292-0.1238708,1.1006775,0.2235413,1.2245483,0.7759705v0.0000153            c0.1239014,0.5524292-0.2235413,1.1006775-0.7759705,1.2245483l-25.377533,5.6905212            C268.5707397,136.5672302,268.0224609,136.2198181,267.8985901,135.6673889z"/><path fill="#f9bd96" d="M224.5061951,113.3337097L224.5061951,113.3337097          c-0.0286255,0.1932755-2.9905701,19.4653473-15.2986603,25.829361          c-6.697876,3.460907-15.4029999,2.5182648-25.8725433-2.8081207          c-2.6137238-1.3290558-5.8173523-0.2888489-7.1494141,2.3285065          c-1.3310699,2.6164856-0.2888489,5.8173676,2.3285065,7.1494446          c7.2254791,3.6754608,13.9729767,5.67276,20.1898956,5.9854889          c5.5852356,0.2809601,10.7416534-0.7971191,15.4371948-3.2358398          c17.1615295-8.9157867,20.7458801-32.7256546,20.8893127-33.7354813L224.5061951,113.3337097z"/><polygon fill="#ff6464" points="222.512 233.407 222.544 235.441 234.381 235.441 234.349 233.407"/><polygon fill="#ff6464" points="222.598 238.4 222.641 240.445 234.478 240.445 234.435 238.4"/><g><path fill="#ff6464" d="M276.6924744 169.8535461c.0754089.6888428.1400146 1.3666534.1938782 2.0339508h11.944397c-.0538635-.6780701-.1074524-1.3558807-.1720886-2.0339508H276.6924744zM277.101532 174.8467255c.0430908.6993561.0646057 1.3774261.085907 2.0444489h11.8800049c-.010498-.6777954-.0320435-1.3558655-.0643616-2.0444489H277.101532z"/></g><g><path fill="#fff" d="M208.848053,80.4243088l-0.0156708,0.3117142          c-0.1157074,2.3000565,0.2732544,4.2051544,1.036972,5.7303238          c0.5658417,0.1039581,1.1795959,0.1132584,1.8420715,0.0063782c1.4881592-0.237381,2.4651489-0.8132324,3.1161957-1.5454254          c0.0112915-0.0102158,0.0112915-0.0102158,0.0005341-0.0107574          c1.3588715-1.5262451,1.2209167-3.7096481,1.0675964-4.7300949          c-0.0391846-0.2929001-0.3309479-0.4906616-0.6147156-0.4189148          C214.3105927,79.9988556,212.0249176,80.4549561,208.848053,80.4243088z"/></g><g><path fill="#2f2f2f" d="M213.8809204,74.0559692c-0.0390778,0.7767715,0.5606537,1.4297867,1.327713,1.4683685          c0.7670441,0.0385895,1.4292908-0.5509491,1.4683685-1.3277206          c0.0385895-0.7670517-0.5611572-1.4200668-1.3282013-1.4586563          C214.5817413,72.699379,213.9194946,73.2889175,213.8809204,74.0559692z"/></g></g><g><path fill="#5244ef" d="M179.2053986,183.7180176c0,1.6528778-1.3392639,2.9921417-2.9637909,2.9921417       c-1.6530304,0-2.9916077-1.3392639-2.9916077-2.9921417c0-1.6243286,1.3385773-2.9636078,2.9916077-2.9636078       C177.8661346,180.7544098,179.2053986,182.093689,179.2053986,183.7180176z"/></g><g><path fill="#5244ef" d="M44.8622398,93.5550385c0,1.6528702-1.3392677,2.9921341-2.9637833,2.9921341       c-1.653038,0-2.9916115-1.3392639-2.9916115-2.9921341c0-1.6243362,1.3385735-2.9636078,2.9916115-2.9636078       C43.5229721,90.5914307,44.8622398,91.9307022,44.8622398,93.5550385z"/></g><g><path fill="#5244ef" d="M257.1512451,107.8077393c0,1.6528625-1.3392792,2.9921265-2.9637909,2.9921265       c-1.6530304,0-2.9916077-1.3392639-2.9916077-2.9921265c0-1.6243439,1.3385773-2.9636154,2.9916077-2.9636154       C255.8119659,104.8441238,257.1512451,106.1833954,257.1512451,107.8077393z"/></g><g><path fill="#5244ef" d="M85.4336166,232.9183655c0,1.6528625-1.3392639,2.9921265-2.9637833,2.9921265       c-1.653038,0-2.9916077-1.3392639-2.9916077-2.9921265c0-1.6243439,1.3385696-2.963623,2.9916077-2.963623       C84.0943527,229.9547424,85.4336166,231.2940216,85.4336166,232.9183655z"/></g><g><path fill="#fff" d="M144.0953827,216.1638489c-2.2616119,0-4.107132,1.8456116-4.107132,4.115799         c0,2.2615051,1.84552,4.1071167,4.107132,4.1071167c2.2700806,0,4.115799-1.8456116,4.115799-4.1071167         C148.2111816,218.0094604,146.3654633,216.1638489,144.0953827,216.1638489z M144.0953827,222.6538086         c-1.3083954,0-2.3741608-1.0657654-2.3741608-2.3741608c0-1.3170776,1.0657654-2.3828278,2.3741608-2.3828278         c1.3170776,0,2.3828278,1.0657501,2.3828278,2.3828278         C146.4782104,221.5880432,145.4124603,222.6538086,144.0953827,222.6538086z"/></g><g><path fill="#fff" d="M41.8802071,176.6429596c-2.2616158,0-4.1071243,1.8456116-4.1071243,4.115799         c0,2.2615051,1.8455086,4.1071167,4.1071243,4.1071167c2.2700768,0,4.1157951-1.8456116,4.1157951-4.1071167         C45.9960022,178.4885712,44.1502838,176.6429596,41.8802071,176.6429596z M41.8802071,183.1329041         c-1.3083992,0-2.374157-1.0657501-2.374157-2.3741455c0-1.3170776,1.0657578-2.382843,2.374157-2.382843         c1.31707,0,2.3828278,1.0657654,2.3828278,2.382843C44.2630348,182.0671539,43.1972771,183.1329041,41.8802071,183.1329041z"/></g><g><path fill="#fff" d="M180.3348236,50.122654c-2.2616119,0-4.107132,1.8456154-4.107132,4.115799         c0,2.2615089,1.84552,4.1071243,4.107132,4.1071243c2.2700806,0,4.115799-1.8456154,4.115799-4.1071243         C184.4506226,51.9682693,182.6049042,50.122654,180.3348236,50.122654z M180.3348236,56.6126099         c-1.3083954,0-2.3741608-1.0657578-2.3741608-2.374157c0-1.31707,1.0657654-2.3828316,2.3741608-2.3828316         c1.3170776,0,2.3828278,1.0657616,2.3828278,2.3828316         C182.7176514,55.5468521,181.6519012,56.6126099,180.3348236,56.6126099z"/></g><g><path fill="#5244ef" d="M254.1692047,216.1638489c-2.2616119,0-4.1071167,1.8456116-4.1071167,4.115799         c0,2.2615051,1.8455048,4.1071167,4.1071167,4.1071167c2.2700653,0,4.115799-1.8456116,4.115799-4.1071167         C258.2850037,218.0094604,256.43927,216.1638489,254.1692047,216.1638489z M254.1692047,222.6538086         c-1.3083954,0-2.3741608-1.0657654-2.3741608-2.3741608c0-1.3170776,1.0657654-2.3828278,2.3741608-2.3828278         c1.3170776,0,2.3828278,1.0657501,2.3828278,2.3828278         C256.5520325,221.5880432,255.4862823,222.6538086,254.1692047,222.6538086z"/></g></g></svg>