<svg xmlns="http://www.w3.org/2000/svg" width="283.679" height="259.33" enable-background="new 0 0 316 316" viewBox="16.163 39.095 283.679 259.33"><path fill="#7d7dff" d="M85.337 281.93h145.332c25.597-21.018 41.931-52.903 41.931-88.611 0-63.287-51.31-114.596-114.596-114.596-63.295 0-114.604 51.31-114.604 114.596 0 35.708 16.334 67.593 41.937 88.61z"/><path fill="#3e3ad8" d="M286.947 284.283c0 1.3-1.053 2.354-2.353 2.354H31.41a2.354 2.354 0 0 1 0-4.708h253.183c1.3 0 2.353 1.054 2.353 2.354z"/><path fill="#fec6b9" d="M178.293 125.114c-2.616 0-5.19-.345-7.653-1.14-11.4-3.676-14.368-25.335-10.73-37.586a4.841 4.841 0 1 1 9.282 2.755c-3.017 10.16.699 24.416 4.42 25.616 10.988 3.544 29.019-7.693 35.036-12.322a4.842 4.842 0 0 1 5.904 7.674c-2.262 1.741-20.043 15.003-36.259 15.003zM190.324 277.467a4.841 4.841 0 0 1-4.682-6.087L221.1 138.024a4.84 4.84 0 1 1 9.357 2.49L195 273.868a4.842 4.842 0 0 1-4.676 3.598zM249.15 277.466a4.841 4.841 0 0 1-4.823-4.487l-9.784-133.356a4.841 4.841 0 0 1 4.474-5.182 4.815 4.815 0 0 1 5.182 4.473l9.784 133.356a4.841 4.841 0 0 1-4.832 5.196z"/><path fill="#fff" d="m195.046 236.014-9.404 35.366a4.841 4.841 0 1 0 9.358 2.489l10.065-37.855h-10.02zM241.615 236.014l2.712 36.965a4.841 4.841 0 1 0 9.657-.71l-2.66-36.255h-9.709z"/><path fill="#3f3f3f" d="M248.448 196.817h-9.712l-.785-10.731a9.743 9.743 0 0 0-19.134-1.792l-3.33 12.523h-10.02l15.627-58.794c.688-2.585 3.34-4.115 5.926-3.437a4.838 4.838 0 0 1 3.593 4.89h3.93a4.834 4.834 0 0 1 4.474-5.035c2.702-.213 4.987 1.81 5.18 4.473l4.251 57.903z"/><path fill="#191919" d="M226.67 96.896c-21.232-26.507 3.747-54.565 18.133-43.56 16.78-3.721 21.212 36.991-1.395 45.64l-16.738-2.08z"/><path fill="#ffe05c" d="m266.64 108.369-6.19 7.51-7.74-5.99-1.74 40.65-39.67 6.68 7.05-46.85-9.84 3.98-4.21-8.98 13.84-9.98c1.89-1.15 4-1.88 6.2-2.14 1.39-.16 2.78-.28 4.18-.36 4.46-.27 8.97-.13 13.54.38 2.82.31 5.65.76 8.5 1.33 1.84.37 3.58 1.16 5.04 2.35 4.2 3.45 7.73 7.35 11.04 11.42z"/><path fill="#fec6b9" d="M284.244 140.895c-.687 2.991-2.818 6.961-9.082 8.888-8.38 2.59-24.986 1.412-33.667.736a4.84 4.84 0 0 1-4.435-5.219c.223-2.663 2.556-4.657 5.219-4.425 3.38.271 6.39.465 9.083.59 3.93.19 22.609 1.065 23.442-2.74.948-4.134-6.15-14.36-14.34-22.86l6.177-7.495c-.078-.087-.145-.184-.223-.271 6.797 6.875 20.286 22.115 17.826 32.796z"/><path fill="#fec6b9" d="m234.914 140.78 7.964.143 1.616 5.133-9.716-.209a2.535 2.535 0 1 1 .136-5.068z"/><path fill="#ff9d45" d="m253.696 269.047.896 10.673a2.053 2.053 0 0 1-2.04 2.067l-20.09.142c-.916.006-1.75-.587-1.983-1.472-.374-1.42-.375-3.613 2.127-5.441 4.074-2.978 5.782-5.38 7.992-6.79.955-.61 4.007-3.533 6.325.97l6.773-.15z"/><path fill="#fff" d="m158.74 72.297 9.056 29.213c.493 1.588-.372 2.875-1.931 2.875h-17.142c-1.56 0-3.223-1.287-3.715-2.875l-9.057-29.213c-.492-1.588.373-2.875 1.932-2.875h17.142c1.559 0 3.222 1.287 3.714 2.875z"/><path fill="#d0dbf7" d="m163.8 95.829-6.192-19.996c-.23-.747-1.012-1.352-1.745-1.352H140.19c-.733 0-1.139.605-.908 1.35l6.191 19.997c.232.746 1.013 1.35 1.746 1.35h15.673c.732 0 1.139-.603.908-1.35zM157.53 100.601c.246.795-.186 1.437-.962 1.437-.78 0-1.61-.642-1.856-1.437-.245-.79.186-1.433.966-1.433.776 0 1.606.643 1.851 1.433zM150.8 72.163c.106.34-.08.616-.413.616h-3.443c-.334 0-.69-.276-.796-.616-.105-.339.08-.615.414-.615h3.444c.333 0 .69.276.795.615zM145.149 72.163c.105.34-.08.616-.414.616h-.133c-.334 0-.69-.276-.795-.616-.106-.339.08-.615.413-.615h.133c.334 0 .69.276.796.615z"/><path fill="#fec6b9" d="m164.182 85.422 3.38 4.807-1.368 6.112-6.198-8.06a2.535 2.535 0 0 1 4.186-2.86z"/><path fill="#aeb9e1" d="m148.224 140.654 9.067 40.446c.633 2.825-1.515 5.51-4.41 5.51h-47.018a4.52 4.52 0 0 1-4.411-3.533l-9.067-40.446c-.634-2.825 1.515-5.509 4.41-5.509h47.018a4.52 4.52 0 0 1 4.411 3.532z"/><path fill="#fff" d="M106.016 171.194h40.503c1.93 0 3.363-1.79 2.941-3.674l-5.53-24.668a1.499 1.499 0 0 0-1.462-1.171h-43.61c-.626 0-1.002.352-1.17.562a1.47 1.47 0 0 0-.292 1.264l5.679 25.332a3.014 3.014 0 0 0 2.941 2.355z"/><ellipse cx="112.725" cy="178.344" fill="#fff" rx="3.809" ry="4.292" transform="rotate(-43.768 112.725 178.344)"/><path fill="#fff" d="M147.387 176.502a1.186 1.186 0 0 1-1.172 1.367h-24.45a1.186 1.186 0 0 1 0-2.372h24.45c.585 0 1.083.426 1.172 1.005zM135.768 181.263a1.186 1.186 0 0 1-1.172 1.367h-12.83a1.186 1.186 0 1 1 0-2.372h12.83c.585 0 1.083.427 1.172 1.005z"/><path fill="#6075c6" d="M84.035 105.871H38.797a5.519 5.519 0 0 1-5.514-5.284L31.47 57.914a5.519 5.519 0 0 1 5.514-5.753h45.238a5.519 5.519 0 0 1 5.514 5.285l1.813 42.672a5.519 5.519 0 0 1-5.514 5.753z"/><path fill="#fff" d="m36.476 61.694 1.048 24.655a3.34 3.34 0 0 0 3.337 3.199H80.77a3.34 3.34 0 0 0 3.337-3.483L83.059 61.41a3.34 3.34 0 0 0-3.337-3.198H39.813a3.34 3.34 0 0 0-3.337 3.482z"/><ellipse cx="45.909" cy="96.547" fill="#fff" rx="3.809" ry="4.292" transform="rotate(-43.768 45.91 96.547)"/><path fill="#fff" d="M80.571 94.704a1.186 1.186 0 0 1-1.172 1.368H54.95a1.186 1.186 0 1 1 0-2.372h24.45c.585 0 1.083.426 1.172 1.004zM68.952 99.466a1.186 1.186 0 0 1-1.172 1.367H54.949a1.186 1.186 0 0 1 0-2.372h12.83c.586 0 1.083.427 1.173 1.005z"/><path fill="#2dc168" d="M156.397 84.317c.897 2.686-.46 4.856-3.036 4.856s-5.382-2.17-6.278-4.856c-.897-2.686.46-4.857 3.037-4.857 2.575 0 5.381 2.171 6.277 4.857z"/><path fill="#fff" d="M151.166 85.88a.727.727 0 0 1-.574-.28l-.872-1.119a.727.727 0 0 1 1.146-.893l.427.55 1.602-1.233a.726.726 0 1 1 .885 1.152l-2.173 1.672a.723.723 0 0 1-.441.15zM137.666 91.034l-1.412-.34a.726.726 0 0 1 .34-1.41l1.413.34a.725.725 0 1 1-.34 1.41zM133.767 90.072c-.16 0-.026.007-2.83-.662a.727.727 0 0 1-.537-.877.732.732 0 0 1 .877-.536l2.659.642a.727.727 0 0 1-.17 1.433zm-5.49-1.305-2.659-.642a.727.727 0 0 1-.536-.877.734.734 0 0 1 .877-.536l2.659.642a.727.727 0 0 1-.34 1.413zm-5.318-1.285-2.66-.642a.727.727 0 0 1-.536-.877.734.734 0 0 1 .877-.536l2.659.642a.727.727 0 0 1-.34 1.413zm-5.318-1.285-2.66-.642a.727.727 0 0 1-.536-.877.735.735 0 0 1 .877-.536l2.659.642a.727.727 0 0 1-.34 1.413zm-5.318-1.285-2.66-.642a.727.727 0 0 1-.536-.877.736.736 0 0 1 .877-.536l2.659.642a.727.727 0 0 1-.34 1.413zm-5.32-1.285-2.658-.642a.727.727 0 0 1-.536-.877.733.733 0 0 1 .876-.536l2.66.642a.727.727 0 0 1-.341 1.413zm-5.317-1.285-2.66-.642a.727.727 0 0 1-.535-.877.733.733 0 0 1 .876-.536l2.66.642a.727.727 0 0 1-.341 1.413zM96.368 81.057l-1.412-.342a.724.724 0 0 1-.535-.875.727.727 0 0 1 .875-.535l1.412.34a.725.725 0 1 1-.34 1.41zM137.757 95.38a.727.727 0 0 1-.672-1l.549-1.345a.726.726 0 0 1 1.345.548l-.55 1.345a.727.727 0 0 1-.672.452zM124.099 128.06a.728.728 0 0 1-.397-.947l1.115-2.728a.726.726 0 1 1 1.344.55l-1.115 2.729a.727.727 0 0 1-.947.397zm2.23-5.455a.728.728 0 0 1-.397-.948l1.115-2.728a.728.728 0 0 1 1.345.55l-1.115 2.729a.728.728 0 0 1-.947.397zm2.23-5.456a.728.728 0 0 1-.397-.948l1.116-2.727a.726.726 0 1 1 1.344.55l-1.115 2.728a.728.728 0 0 1-.948.397zm2.23-5.455a.728.728 0 0 1-.396-.948l1.115-2.728a.726.726 0 1 1 1.344.55l-1.115 2.728a.727.727 0 0 1-.947.398zm2.231-5.456a.728.728 0 0 1-.397-.948l1.115-2.728a.726.726 0 1 1 1.345.55l-1.115 2.728a.728.728 0 0 1-.948.398zm2.231-5.456a.728.728 0 0 1-.397-.948l1.115-2.728a.728.728 0 0 1 1.345.55l-1.115 2.728a.728.728 0 0 1-.948.398zM122.435 132.133a.726.726 0 0 1-.398-.946l.549-1.345a.726.726 0 0 1 1.345.548l-.55 1.345a.726.726 0 0 1-.946.398z"/><path fill="#ff9d45" d="m196.276 269.047.896 10.673a2.053 2.053 0 0 1-2.04 2.067l-20.09.142c-.915.006-1.75-.587-1.983-1.472-.373-1.42-.374-3.613 2.127-5.441 4.074-2.978 5.782-5.38 7.992-6.79.955-.61 4.008-3.533 6.325.97l6.773-.15z"/><path fill="#ffe05c" d="M66.029 201.609c0 1.763-1.429 3.192-3.162 3.192a3.191 3.191 0 0 1-3.192-3.192c0-1.733 1.428-3.162 3.192-3.162a3.179 3.179 0 0 1 3.162 3.162zM135.83 233.08c0 2.068-1.676 3.744-3.71 3.744a3.743 3.743 0 0 1-3.743-3.744c0-2.033 1.675-3.709 3.744-3.709 2.033 0 3.708 1.676 3.708 3.709z"/><path fill="#fffeff" d="M178.183 150.955c0 1.383-1.12 2.503-2.48 2.503a2.502 2.502 0 0 1-2.502-2.503c0-1.359 1.12-2.48 2.502-2.48 1.36 0 2.48 1.121 2.48 2.48z"/><path fill="#5244ef" d="M228.381 218.568c0 1.445-1.17 2.616-2.591 2.616a2.615 2.615 0 0 1-2.616-2.616c0-1.42 1.17-2.592 2.616-2.592a2.605 2.605 0 0 1 2.591 2.592z"/><path fill="#fffeff" d="M271.137 161.852c0 1.625-1.317 2.943-2.915 2.943a2.942 2.942 0 0 1-2.943-2.943c0-1.598 1.317-2.916 2.943-2.916a2.931 2.931 0 0 1 2.915 2.916z"/><path fill="#5244ef" d="M72.295 150.953c0 1.626-1.317 2.943-2.915 2.943a2.942 2.942 0 0 1-2.943-2.943c0-1.598 1.317-2.915 2.943-2.915a2.931 2.931 0 0 1 2.915 2.915z"/><path fill="#fffeff" d="M108.898 101.88c0 1.424-1.154 2.578-2.554 2.578a2.578 2.578 0 0 1-2.579-2.579c0-1.4 1.154-2.554 2.579-2.554 1.4 0 2.554 1.154 2.554 2.554z"/><path fill="#5244ef" d="M167.694 210.51a4.601 4.601 0 0 0-4.59 4.599 4.6 4.6 0 0 0 4.59 4.59c2.537 0 4.6-2.063 4.6-4.59 0-2.537-2.063-4.6-4.6-4.6zm0 7.252a2.657 2.657 0 1 1 .008-5.315 2.657 2.657 0 0 1-.008 5.315z"/><path fill="#7d7dff" d="M172.152 63.136a4.601 4.601 0 0 0-4.59 4.6 4.6 4.6 0 0 0 4.59 4.59c2.537 0 4.6-2.063 4.6-4.59 0-2.537-2.063-4.6-4.6-4.6zm0 7.253a2.657 2.657 0 1 1 .008-5.314 2.657 2.657 0 0 1-.008 5.314z"/><path fill="#2dc168" d="M86.702 281.93h-6.827c-1.978-3.124-4.038-7.417-5.693-12.501a2.03 2.03 0 0 0 1.404-1.937 2.054 2.054 0 0 0-2.498-2.004c-1.133-4.86-1.075-8.463.406-9.053 3.723-1.47 12.187 15.255 13.208 25.494z"/><path fill="#0e9d4b" d="M88.319 281.93h-6.207c-1.215-6.482-1.41-15.027-.959-21.67a2.063 2.063 0 0 0 1.83-2.044c0-.93-.62-1.714-1.471-1.965.735-6.44 2.12-10.768 3.708-10.768 1.085 0 2.072 2.034 2.837 5.384a2.044 2.044 0 0 0-1.326 1.917c0 1.123.9 2.034 2.023 2.053 1.084 7.936 1.027 19.29-.435 27.092z"/><path fill="#2dc168" d="M96.626 268.083c-1.172-.146-2.285.792-2.285 2.043 0 .755.417 1.423 1.027 1.772-1.337 3.493-2.79 6.793-4.842 10.031H83.71c.982-10.173 9.499-26.96 13.197-25.494 1.733.687 1.52 5.51-.28 11.648z"/><path fill="#fec6b9" d="M231.049 73.537a3.994 3.994 0 0 1-4.38 3.553 3.992 3.992 0 0 1-3.553-4.37 3.994 3.994 0 0 1 4.37-3.563 3.996 3.996 0 0 1 3.563 4.38z"/><path fill="#fec6b9" d="M254.868 76.22a4.083 4.083 0 0 1-4.067 4.067c-.458 0-.916-.086-1.318-.23-3.207 5.098-8.477 8.506-13.518 8.506-7.331 0-11.484-7.102-10.11-16.267 1.089-7.303 5.843-13.518 11.428-15.695.974 4.239 4.468 14.778 15.064 15.867a4.04 4.04 0 0 1 2.521 3.752z"/><path fill="#fff" d="M242.06 93.269c-.01.05-.03.1-.04.15-1.78 6.46-5.3 7.42-7.24 7.42-.56 0-1.14-.08-1.71-.24-1.31-.36-5.05-1.92-4.55-7.71 4.46-.27 8.97-.13 13.54.38z"/><path fill="#fec6b9" d="M240.414 87.717a24.274 24.274 0 0 1-.804 5.044c-1.327 4.803-3.64 6.052-5.868 5.432-2.236-.62-3.573-2.875-2.246-7.678.232-.852.542-1.733.89-2.595 2.572.987 5.47.762 8.028-.203z"/><path fill="#f4b8ab" d="M240.414 87.717a24.274 24.274 0 0 1-.804 5.044c-.881 3.176-2.188 4.803-3.621 5.355.967-1.333 1.548-3.124 1.909-4.724.408-1.813-1.14-3.404-2.994-3.26-1.06.082-2.177.023-3.234-.227.213-.658.455-1.327.717-1.985 1.084.416 2.285.64 3.582.64 1.482 0 2.983-.291 4.445-.843z"/><path fill="#fff" d="M240.973 80.68c-1.28 2.771-3.554 5.01-6.546 4.388-2.759-.58-3.772-2.68-3.22-5.402a.42.42 0 0 1 .534-.322c1.115.334 4.352 1.132 8.804.739.328-.03.569.299.428.598z"/><path fill="#191919" d="M231.81 72.41a1.395 1.395 0 0 1-2.788 0c0-.764.63-1.384 1.395-1.384s1.394.62 1.394 1.385zM244.875 73.967a1.395 1.395 0 0 1-2.789 0c0-.765.63-1.385 1.394-1.385.765 0 1.395.62 1.395 1.385zM244.17 55.4s-8.26 5.121-8.45 13.43c0 0-5.527-5.039-3.437-12.229"/><path fill="#ff6464" d="M105.194 152.94c.722-.834 2.033-1.252 3.934-1.252 1.1 0 2.087.153 2.963.46.876.307 1.608.722 2.195 1.247a5.193 5.193 0 0 1 1.324 1.796h-1.764c-.313-.647-.837-1.15-1.57-1.509-.734-.357-1.638-.536-2.711-.536-2.668 0-3.675 1.095-3.019 3.285.337 1.125.93 1.956 1.782 2.493.851.537 1.92.805 3.207.805 1.066 0 1.856-.183 2.373-.55.517-.366.742-.873.676-1.52h1.777c.108.673.024 1.276-.25 1.809-.276.532-.76.952-1.452 1.259-.693.307-1.588.46-2.688.46-1.9 0-3.462-.42-4.686-1.26-1.222-.838-2.057-2.004-2.503-3.496-.447-1.491-.31-2.655.412-3.49zM119.703 158.016c.176.589.63 1.03 1.361 1.323.732.295 1.89.442 3.475.442 1.279 0 2.165-.115 2.659-.345.493-.23.671-.576.534-1.036-.1-.332-.274-.577-.52-.735-.249-.158-.65-.275-1.206-.352-.555-.076-1.441-.153-2.657-.23-1.336-.077-2.411-.209-3.226-.396-.814-.187-1.46-.47-1.936-.85-.475-.38-.812-.897-1.008-1.554-.278-.929-.025-1.594.759-1.994.783-.4 2.023-.601 3.719-.601 1.704 0 3.111.256 4.219.767 1.107.511 1.814 1.266 2.121 2.263h-1.751a1.73 1.73 0 0 0-.67-.94c-.332-.234-.799-.407-1.403-.518s-1.374-.166-2.313-.166c-.852 0-1.503.047-1.952.141-.449.094-.742.232-.88.415-.136.184-.16.42-.074.71.09.298.256.529.5.69.245.162.632.288 1.162.377.53.09 1.32.169 2.371.237 1.472.102 2.594.215 3.369.339.774.124 1.432.362 1.972.716s.916.884 1.128 1.591c.324 1.083.078 1.833-.739 2.25-.817.418-2.065.627-3.744.627-1.943 0-3.5-.24-4.671-.722-1.172-.482-1.96-1.298-2.364-2.449h1.765zM132.475 158.016c.176.589.63 1.03 1.362 1.323.731.295 1.89.442 3.474.442 1.279 0 2.165-.115 2.659-.345.494-.23.672-.576.534-1.036-.1-.332-.274-.577-.52-.735-.248-.158-.65-.275-1.205-.352-.556-.076-1.442-.153-2.658-.23-1.335-.077-2.411-.209-3.226-.396-.814-.187-1.46-.47-1.935-.85-.476-.38-.812-.897-1.009-1.554-.278-.929-.025-1.594.76-1.994.782-.4 2.023-.601 3.718-.601 1.705 0 3.111.256 4.22.767 1.106.511 1.814 1.266 2.12 2.263h-1.75a1.73 1.73 0 0 0-.672-.94c-.33-.234-.797-.407-1.401-.518-.604-.11-1.375-.166-2.313-.166-.853 0-1.504.047-1.952.141-.45.094-.742.232-.88.415-.136.184-.161.42-.075.71.09.298.256.529.5.69.245.162.632.288 1.162.377.53.09 1.32.169 2.372.237 1.471.102 2.594.215 3.368.339.774.124 1.432.362 1.972.716s.917.884 1.128 1.591c.324 1.083.078 1.833-.739 2.25-.817.418-2.065.627-3.743.627-1.944 0-3.5-.24-4.672-.722-1.171-.482-1.959-1.298-2.363-2.449h1.764zM49.6 72.212c.742.592 1.164 1.544 1.267 2.855l.23 3.49h-1.499l-.208-3.154c-.062-.935-.33-1.625-.802-2.07-.473-.443-1.254-.665-2.341-.665-1.136 0-2.03.264-2.682.792-.653.528-.946 1.3-.88 2.315l.185 2.782h-1.5l-.633-9.595h1.499l.275 4.162a3.982 3.982 0 0 1 1.614-1.343c.66-.304 1.47-.456 2.43-.456 1.286 0 2.301.296 3.044.887zM59.01 72.872h-3.562l.178 2.699c.035.536.105.933.21 1.193s.282.442.528.546c.247.104.618.156 1.114.156.488 0 1.096-.048 1.826-.144l.084 1.283c-.839.128-1.559.192-2.158.192-.752 0-1.34-.092-1.763-.276a1.813 1.813 0 0 1-.944-.941c-.206-.444-.335-1.074-.389-1.89l-.186-2.818H51.86l-.086-1.307h2.087l-.108-1.631 1.466-.504.141 2.135h3.562l.087 1.307zM75.082 72.159c.612.556.964 1.413 1.057 2.572l.252 3.826h-1.498l-.244-3.694c-.05-.743-.267-1.295-.655-1.655-.388-.36-1.01-.54-1.865-.54-.496 0-.961.1-1.395.3-.435.2-.777.498-1.027.894-.25.396-.357.87-.32 1.421l.216 3.274h-1.499l-.244-3.694c-.049-.743-.268-1.295-.655-1.655-.387-.36-1.005-.54-1.853-.54-.504 0-.973.1-1.407.3-.435.2-.776.498-1.026.894s-.357.87-.32 1.421l.216 3.274h-1.499l-.462-6.992h1.499l.093 1.415c.776-1.103 1.886-1.655 3.334-1.655 1.662 0 2.75.652 3.259 1.955.777-1.303 1.954-1.955 3.53-1.955 1.062 0 1.9.278 2.513.834zM78.347 78.557l-.634-9.595h1.499l.634 9.595h-1.5z"/></svg>