<svg xmlns="http://www.w3.org/2000/svg" id="Layer_1" width="283.679" height="273.442" x="0" y="0" enable-background="new 0 0 316 316" version="1.1" viewBox="16.161 21.381 283.679 273.442" xml:space="preserve"><g id="Online_Chatting"><path fill="#7d7dff" d="M85.3369751,277.686676h145.3320313c25.5966797-21.0178223,41.9312744-52.9022064,41.9312744-88.6108246      c0-63.2863846-51.3094482-114.5958328-114.5958252-114.5958328c-63.2952881,0-114.6047363,51.3094482-114.6047363,114.5958328      C43.3997192,224.7844696,59.7341919,256.6688538,85.3369751,277.686676z"/><path fill="#3e3ad8" d="M286.9454956,280.0405273L286.9454956,280.0405273          c0,1.2999878-1.0538635,2.3538513-2.3538513,2.3538513H31.4093227c-1.2999916,0-2.3538418-1.0538635-2.3538418-2.3538513          l0,0c0-1.2999878,1.0538502-2.3538513,2.3538418-2.3538513h253.1823273          C285.8916321,277.686676,286.9454956,278.7405396,286.9454956,280.0405273z"/><path fill="#fec6b9" d="M99.6077271 264.7047119c2.3767319 0 4.4543533-1.743866 4.805687-4.1642761l6.7522583-46.5470123c.0845108-.5844574.0626755-1.1788788-.0664673-1.755249l-9.8677444-44.2875671c-.5830231-2.6207581-3.189537-4.2706146-5.8017578-3.6880646-2.6207657.5839844-4.2720337 3.1819458-3.6880569 5.8027191l9.6730804 43.4158783-6.6240692 45.6634521c-.3855209 2.6573181 1.4566116 5.1237793 4.1134567 5.5093079C99.1405487 264.6880798 99.3760376 264.7047119 99.6077271 264.7047119zM68.8004761 264.7047119c2.4897232 0 4.6110229-1.9024353 4.8370132-4.4301453l8.8194351-98.7984772c.2383423-2.674408-1.7357788-5.0359497-4.4106674-5.274292-2.6511459-.2407074-5.0354691 1.7348328-5.2747574 4.410202l-8.8194351 98.7984619c-.2383385 2.6744385 1.7357788 5.0359497 4.4106674 5.274292C68.5089645 264.6980591 68.6551971 264.7047119 68.8004761 264.7047119z"/><path fill="#fff" d="M98.8995056 264.6493835c.2430878.0389404.4764404.0583496.7097931.0583496 2.3724518 0 4.453392-1.7502136 4.8033066-4.1713257l3.3351822-22.9375.2042694-1.4391022.2430878-1.6723938.2138824-1.4391022.359642-2.4988708h-9.8302307l-.3598785 2.4988708-.2138901 1.4391022-.2430801 1.6723938-.204155 1.4391022-3.1309128 21.5470581C94.4072952 261.8004456 96.2450333 264.2702026 98.8995056 264.6493835zM63.9536285 259.4085083c-.243084 2.6739502 1.7306747 5.0367126 4.4046173 5.2798157.145874.0097351.3013611.0194092.4376221.0194092 2.4988632 0 4.6186218-1.9057617 4.8422394-4.4338989l2.0224304-22.6749268.1264038-1.4391022.1556091-1.6723938.1264114-1.4391022.2236176-2.4988708h-9.7623444l-.2236176 2.4988708-.1264114 1.4391022-.1556015 1.6723938-.1262894 1.4391022L63.9536285 259.4085083z"/><path fill="#95aae5" d="M100.8646011,166.1688232l4.7133408,20.9035492H95.5704956L91.89431,170.5761108                 c-0.545166-2.420639-2.7246246-4.1189728-5.2050858-4.0561829                 c-2.6141205,0.0661011-4.7726898,2.0630798-5.0415268,4.6641388l-1.4130554,15.8883057H70.437645                 l1.7497864-20.1871643l-0.8262329-13.8591309h29.6274414l-0.1240387,13.1330719V166.1688232z"/><path fill="#ff6464" d="M93.4927673,276.1069946h20.2934875                  c-0.024704-3.8256531-2.9617157-7.1578064-6.9104691-7.5526733l-1.726326-0.2467346l-1.0090866-2.7396851                  H94.0356979L93.4927673,276.1069946z"/><path fill="#dd4040" d="M93.0206909,276.8968506L93.0206909,276.8968506                  c0,0.4362183,0.3536224,0.7898254,0.7898407,0.7898254h20.0035477                  c0.4362183,0,0.7898407-0.3536072,0.7898407-0.7898254l0,0c0-0.4362183-0.3536224-0.789856-0.7898407-0.789856                  H93.8105316C93.3743134,276.1069946,93.0206909,276.4606323,93.0206909,276.8968506z"/><path fill="#5244ef" d="M93.1135101,260.0782776l-0.0949326,4.1823425                 c-0.0234604,1.0335693,0.8079834,1.8840942,1.8418198,1.8840942h8.9321365                 c1.0174713,0,1.8422928-0.8248291,1.8422928-1.8422852v-2.6920471                 c0-0.8992615-0.6492081-1.6671143-1.5359344-1.8166504l-8.837204-1.4902649                 C94.1543579,258.1167297,93.1389923,258.9556274,93.1135101,260.0782776z"/><path fill="#ff6464" d="M62.9488449,276.1069946h20.2934875                  c-0.0247116-3.8256531-2.9617157-7.1578064-6.9104691-7.5526733l-1.726326-0.2467346l-1.0090866-2.7396851                  H63.4917755L62.9488449,276.1069946z"/><path fill="#dd4040" d="M62.4767647,276.8968506L62.4767647,276.8968506                  c0,0.4362183,0.3536224,0.7898254,0.7898407,0.7898254h20.0035515                  c0.4362106,0,0.7898407-0.3536072,0.7898407-0.7898254l0,0c0-0.4362183-0.3536301-0.789856-0.7898407-0.789856                  H63.2666054C62.8303871,276.1069946,62.4767647,276.4606323,62.4767647,276.8968506z"/><path fill="#5244ef" d="M62.5695877,260.5924988l-0.0949326,4.1823425                 c-0.0234604,1.0335693,0.8079834,1.8840942,1.8418198,1.8840942h8.9321365                 c1.0174713,0,1.8422928-0.8248291,1.8422928-1.8422852v-2.6920471                 c0-0.8992615-0.6492081-1.6671143-1.5359421-1.8166504l-8.837204-1.4902954                 C63.6104317,258.6309204,62.5950699,259.4698181,62.5695877,260.5924988z"/><polygon fill="#ff6464" points="98.365 234.487 108.195 234.487 108.409 233.048 98.579 233.048"/><polygon fill="#ff6464" points="66.18 234.487 75.943 234.487 76.069 233.048 66.307 233.048"/><polygon fill="#ff6464" points="97.917 237.599 107.748 237.599 107.952 236.16 98.122 236.16"/><polygon fill="#ff6464" points="65.898 237.599 75.661 237.599 75.787 236.16 66.025 236.16"/><path fill="#fff" d="M90.9418488,209.6444092c0.2660141,0.1855927,0.3309326,0.5501251,0.14534,0.8161316                 c-0.7535172,1.0800476-0.4870605,2.5762787,0.5930023,3.3298187                 c0.2659988,0.1855774,0.3309326,0.5501099,0.14534,0.8161316                 c-0.1855698,0.2659912-0.5501328,0.3309021-0.816124,0.14534                 c-1.0800705-0.75354-2.5763016-0.4870911-3.3298264,0.5929565                 c-0.1855698,0.2660065-0.5501099,0.3309326-0.816124,0.14534                 c-0.2659912-0.1855621-0.3309174-0.5501251-0.14534-0.8161163                 c0.7535172-1.0800476,0.4870605-2.5762939-0.5929871-3.3298035                 c-0.2659912-0.1855774-0.3309097-0.5501404-0.14534-0.8161316                 c0.1855927-0.2660065,0.5501404-0.3309174,0.8161316-0.14534                 c1.0800476,0.7535248,2.5762863,0.4870605,3.3298035-0.5929871                 C90.3113098,209.5237427,90.6758575,209.4588318,90.9418488,209.6444092z"/><path fill="#5244ef" d="M113.6999359,108.1505585h-8.9987869l-1.7709808,44.8755188H69.7460938l-6.1812019-42.8656158                 h-9.3382759c0,0-1.0523567-17.8616867,16.8679123-24.0325928                 c1.7713776-0.6567383,5.2627945-1.1268616,7.3560257-1.3281708                 c3.6167831-0.3780136,7.4480743-0.5823669,10.8401108,0.2758713                 c0.4494781,0.1021423,1.7265778,0.3780136,3.4838333,0.888855                 c4.0969391,1.1646652,10.7787552,3.5656433,15.4478912,7.9077759                 C112.6361084,97.9793015,113.6999359,108.1505585,113.6999359,108.1505585z"/><path fill="#fff" d="M92.774498,85.9644241l-0.3676605,2.1557236                 c-0.4932938,2.9804535-3.4885712,4.9448853-6.7022705,4.9448853                 c-3.3920364,0-6.2016525-2.073967-6.6920395-4.9346542l-0.5619736-3.3306808                 c3.6167831-0.3780136,7.4480743-0.5823669,10.8401108,0.2758713                 C89.7401428,85.1777115,91.0172424,85.4535828,92.774498,85.9644241z"/><path fill="#fec6b9" d="M80.3693619,80.8692627l1.1570282,6.8258514                 c0.2820129,1.6432648,2.1390991,2.8198166,4.1811142,2.8198166c1.8532944,0,3.890625-1.05793,4.1811142-2.8198166                 l1.137558-6.6799774C88.0465851,81.9619446,83.7661133,82.0247726,80.3693619,80.8692627z"/><path fill="#f4b8ab" d="M80.3693619,80.8692627l1.1570282,6.8258514                 c0.1653366,0.9432068,0.836319,1.7307968,1.7697296,2.2266464                 c-0.1980438-0.3791733-0.2600479-0.829277-0.2430878-0.7292633                 c-0.5231247-3.0858154,1.8174057-5.8963776,4.9462051-5.9771347                 c0.4357452-0.0112457,0.8713989-0.0352859,1.3058777-0.0707932                 c0.4667053-0.0388718,0.9334106-0.0972137,1.3903809-0.1750107l0.3306808-1.954422                 C88.0465851,81.9619446,83.7661133,82.0247726,80.3693619,80.8692627z"/><path fill="#fec6b9" d="M66.2903519,65.2561035c0,1.9585876,1.5980682,3.5563431,3.5572891,3.5563431h0.3082886                 c3.2403564,10.9598999,10.5746231,13.406517,17.6254883,12.8336716                 c7.8544235-0.6381302,14.0214157-7.3187408,14.3825531-16.4416046                 c1.596817-0.3608246,2.8350143-1.8038101,2.8350143-3.5047531c0-2.0101776-1.5980759-3.6079369-3.5572891-3.6079369                 c-0.1031876,0-0.2579575,0-0.361145,0.0515938c-2.3706818-6.3910408-8.2458115-10.8750877-15.1527634-10.8750877                 c-8.0910339,0-14.791626,6.1849899-16.0801468,14.3798409                 C67.8884201,61.6481705,66.2903519,63.2459297,66.2903519,65.2561035z"/><path fill="#fec6b9" d="M66.2903519,65.2561035c0,1.9585876,1.5980682,3.5563431,3.5572891,3.5563431h0.3082886                 c3.2403564,10.9598999,10.5746231,13.406517,17.6254883,12.8336716                 c7.8544235-0.6381302,14.0214157-7.3187408,14.3825531-16.4416046                 c1.596817-0.3608246,2.8350143-1.8038101,2.8350143-3.5047531c0-2.0101776-1.5980759-3.6079369-3.5572891-3.6079369                 c-0.1031876,0-0.2579575,0-0.361145,0.0515938c-2.3706818-6.3910408-8.2458115-10.8750877-15.1527634-10.8750877                 c-8.0910339,0-14.791626,6.1849899-16.0801468,14.3798409                 C67.8884201,61.6481705,66.2903519,63.2459297,66.2903519,65.2561035z"/><path d="M102.2157898,58.2435341c0.0104446,0,0.0199432-0.0028496,0.0284882-0.0090218                 c0.0123444-0.0090218,0.0199432-0.0237389,0.0199432-0.0394058v-0.0517502                 c0-0.0270653-0.021843-0.0484276-0.0484314-0.0484276c-0.1509781,0-0.250679,0-0.3978577-0.0493774                 c-0.0237427-0.0090218-0.0503311,0.0037994-0.0598221,0.0275383c-0.0104446,0.023262,0,0.0508003,0.022789,0.0621948                 c0.0626678,0.0308609,0.1376877,0.0446281,0.218399,0.0588722                 c0.0655136,0.0123444,0.1329346,0.0242119,0.2013016,0.0470009                 C102.2053452,58.2430573,102.2110443,58.2435341,102.2157898,58.2435341z"/><path d="M102.2157898,58.2435341c0.0104446,0,0.0199432-0.0028496,0.0284882-0.0090218                 c0.0123444-0.0090218,0.0199432-0.0237389,0.0199432-0.0394058v-0.0517502                 c0-0.0270653-0.021843-0.0484276-0.0484314-0.0484276c-0.1509781,0-0.250679,0-0.3978577-0.0493774                 c-0.0237427-0.0090218-0.0503311,0.0037994-0.0598221,0.0275383c-0.0104446,0.023262,0,0.0508003,0.022789,0.0621948                 c0.0626678,0.0308609,0.1376877,0.0446281,0.218399,0.0588722                 c0.0655136,0.0123444,0.1329346,0.0242119,0.2013016,0.0470009                 C102.2053452,58.2430573,102.2110443,58.2435341,102.2157898,58.2435341z"/><path fill="#2f2f2f" d="M102.6430511,46.6149788c0.1842346,0.4201241,0.0267258,0.8980827-0.2397385,1.2715073                 c-1.1109772,1.5569267-4.6970673,5.539135-12.4842682,5.8635483                 c-11.1150589,0.463047-16.2398071,2.2833633-15.1853256,12.1193886                 c0.191185,1.1806335-1.3587646,1.1354904-1.6760941,0c0,0-0.7081223-4.8758812-4.2769394-4.0480042                 c0,0-7.4045143-13.8475723,7.5552673-17.6732292                 C88.8973389,40.9358788,101.1233902,43.1497078,102.6430511,46.6149788z"/><g><path fill="#2f2f2f" d="M97.1646423,52.0616112c1.7515869,1.700943,3.0401154,3.762394,3.9159088,6.0818062                 c0.2063675-0.0515938,0.464325-0.0515938,0.7222824-0.0515938                 c0.1031799,0.0515938,0.2579575,0.0515938,0.4127274,0.1031837v-0.05159                 c0.9273911-3.1439285-1.0821533-6.3910408-2.1655731-7.8343391                 C99.2773743,50.9275436,98.3499832,51.5463257,97.1646423,52.0616112z"/></g><g><path fill="#fff" d="M86.3087234,72.2063828c-0.3976898,0-0.6381912,0.4357376-0.4372635,0.7789383                 c0.9211349,1.5733948,2.470787,3.6818008,4.2983627,3.6818008c1.7754745,0,3.3898087-2.1448364,4.2888718-3.681633                 c0.2008209-0.3432693-0.0397034-0.7791061-0.4373932-0.7791061H86.3087234z"/></g><g><path fill="#2f2f2f" d="M92.7088776,64.5001297c0.6903305-0.9224892,1.446167-1.4020157,2.2466431-1.4257545                 c1.3198776-0.0332336,2.3729324,1.1836205,2.3833771,1.1959648                 c0.0864029,0.1025467,0.2392807,0.1163177,0.3427887,0.0289612                 c0.1025467-0.0864105,0.1158447-0.2392883,0.0294342-0.3418427                 c-0.0484314-0.0574455-1.1907425-1.4134064-2.7669983-1.3687782                 c-0.9571457,0.0265884-1.8402252,0.5721054-2.6245575,1.6199379                 c-0.0807114,0.1077728-0.0588684,0.2601776,0.0493774,0.340416                 C92.4768829,64.6299896,92.6293488,64.6067047,92.7088776,64.5001297z"/></g><g><path fill="#2f2f2f" d="M81.1433411,64.5001297c0.5764008-0.7699814,1.3447876-1.4267006,2.310257-1.4267006                 c1.299942,0,2.3093109,1.1845665,2.3197556,1.1964302c0.0864105,0.103508,0.2392883,0.1172714,0.3427887,0.0299149                 c0.1025543-0.0864105,0.1158447-0.2397614,0.0294342-0.3423157                 c-0.6079102-0.7294998-1.7255325-1.4073143-2.7660446-1.3687782                 c-0.9571457,0.0265884-1.8411789,0.5716324-2.6255035,1.6199379                 c-0.0807114,0.1077728-0.058876,0.259697,0.0493698,0.340416                 C80.9113464,64.6299896,81.0638046,64.6067047,81.1433411,64.5001297z"/></g><g><path fill="#2f2f2f" d="M78.4211426,60.1661034c-0.0991592,0.3172569,4.0228958-1.5683823,7.5379028-1.1351013                 c0.5734863,0.0706902,0.2077255-2.0309029-0.3765945-2.2728806                 C84.9981384,56.5161476,79.4961777,56.7266388,78.4211426,60.1661034z"/></g><g><path fill="#2f2f2f" d="M99.4945602,60.2502327c0.0866013,0.3172569-3.5133972-1.5683784-6.5832214-1.1351013                 c-0.5008469,0.0706902-0.1814117-2.0309029,0.3288956-2.2728767                 C93.7505493,56.6002769,98.5556717,56.8107681,99.4945602,60.2502327z"/></g><g><path fill="#ffe05c" d="M44.579483,238.9017334c0.0306816,2.0025024-1.5734253,3.6473999-3.5758743,3.678009               c-1.9922218,0.020462-3.6372299-1.5835876-3.6679115-3.5861053               c-0.0306816-1.992218,1.5734253-3.6473236,3.5758743-3.6677856               C42.9037933,235.2951813,44.5590286,236.8992157,44.579483,238.9017334z"/></g><g><path fill="#5244ef" d="M136.7738953,183.9656982c-1.9934845,0.0270996-3.5980835,1.6760254-3.5708923,3.677063              c0.0272064,2.0010529,1.6760406,3.6057434,3.6695404,3.5786438              c2.000946-0.0272064,3.6057281-1.6761322,3.578537-3.6771851              C140.4238739,185.5431824,138.7748413,183.9384918,136.7738953,183.9656982z M136.8517761,189.6938782              c-1.1532898,0.015686-2.1055756-0.9185944-2.1212463-2.0718842              c-0.015686-1.1532745,0.9108582-2.1130981,2.0641327-2.1287842              c1.1609344-0.0157776,2.1132202,0.9185028,2.128891,2.0717773              C138.9392395,188.718277,138.0126953,189.6781006,136.8517761,189.6938782z"/></g><g><path fill="#fec6b9" d="M89.9665222,137.2028656c-8.3649902,0-14.7654419-2.3272095-19.0247574-6.916275           c-6.7731094-7.2975388-6.568573-18.4070358-6.4932404-20.1261292H54.2245102           c-0.1154861,3.8356552,0.1805916,17.2602692,9.1584358,27.0005035           c6.2737389,6.8070374,15.2184105,10.2586823,26.5835762,10.2586823c2.8215866,0,5.1083908-2.2872925,5.1083908-5.1083832           S92.7881088,137.2028656,89.9665222,137.2028656z"/></g><g><path fill="#fec6b9" d="M113.6999359,108.1505585h-10.2235107           c-0.0379181,6.4063187,1.1987762,23.838562,14.9415359,33.6703491l5.9444885-8.3091125           C114.4976273,126.4540787,113.6797333,112.7749252,113.6999359,108.1505585z"/></g><g><path fill="#fec6b9" d="M129.139328,153.5183258c-0.0289764-0.867569-0.0220947-0.9966583-0.0245972-1.8639832H118.875351           c0.0025024,0.9949493,0.0169601,1.255661,0.0524902,2.2583618           c0.0976563,2.7523499,2.3559799,4.9374237,5.1102142,4.9374237           C126.9468689,158.8501282,129.2364807,156.4255829,129.139328,153.5183258z"/></g><g><path fill="#fff" d="M75.0499573,153.0388794h34.951561l2.5132828-5.6192322H75.0499573           c-1.0932617,0-2.1047134,0.6538849-2.5541916,1.6551208           C71.6681442,150.9342194,73.0168304,153.0388794,75.0499573,153.0388794z"/><path fill="#d0dbf7" d="M89.3125381,153.0388794h20.6889801l2.5132828-5.6192322H87.8411331l-0.8785019,1.9718323           C86.196373,151.1078949,87.4427872,153.0388794,89.3125381,153.0388794z"/><path fill="#fff" d="M157.1518707,115.4801178l-14.9091187,35.9598846           c-0.4000702,0.9649353-1.3418732,1.5940094-2.3864594,1.5940094H92.1652679           c-1.8730469,0-3.1235733-1.9309235-2.3574677-3.6401215l14.8754349-33.1876297           c0.394249-0.8795853,1.2453842-1.4665375,2.2076569-1.5224304l47.7246933-2.7722549           C156.5186768,111.8010254,157.8819733,113.7191696,157.1518707,115.4801178z"/><path fill="#5244ef" d="M127.96698,133.9081726c-0.5812836,1.9885254-2.6587219,3.5961914-4.6549606,3.5961914           c-1.9884262,0-3.1261444-1.607666-2.5448685-3.5961914c0.5835114-1.9961548,2.6611099-3.6037292,4.6495361-3.6037292           C127.4129257,130.3044434,128.5504913,131.9120178,127.96698,133.9081726z"/><path fill="#fff" d="M126.0639267,133.9061737c-0.2739563,0.9371796-1.2530289,1.6948547-2.19384,1.6948547           c-0.9371338,0-1.4733276-0.7576752-1.1993713-1.6948547c0.2750015-0.9407654,1.2541504-1.6983948,2.1912766-1.6983948           C125.802803,132.2077789,126.3389282,132.9654083,126.0639267,133.9061737z"/></g><g><path fill="#fec6b9" d="M118.9113846,153.5993805c0.0003967,0.0124512,0.0007782,0.0247498,0.0011597,0.0368958           c0.0294113,0.9416351,0.8008575,1.6862488,1.7429504,1.6862488h6.7422867           c0.9877167,0,1.7786865-0.8143158,1.7430573-1.8013916c-0.0048981-0.1358948-0.010376-0.2861786-0.0164795-0.458313           c-0.1053009-2.9677277-2.7211609-5.2763062-5.7631149-4.9000702           C120.7119904,148.4904022,118.826683,150.9312897,118.9113846,153.5993805z"/></g><g><path fill="#5244ef" d="M33.9042549,86.2012634c-1.9934902,0.0270996-3.5980911,1.6760254-3.5708866,3.6770706           s1.6760387,3.6057358,3.6695309,3.5786362c2.0009499-0.0272064,3.6057358-1.6761322,3.5785332-3.6771774           S35.9052086,86.174057,33.9042549,86.2012634z M33.982132,91.929451           c-1.1532822,0.0156784-2.105566-0.918602-2.1212463-2.0718842           c-0.0156784-1.1532822,0.9108543-2.1131058,2.0641365-2.1287842           c1.1609306-0.0157852,2.1132126,0.9184952,2.128891,2.0717773           C36.0695953,90.9538422,35.1430626,91.9136734,33.982132,91.929451z"/></g><g><path fill="#fff" d="M182.2813416,61.4977036v15.1917572c0,0.635788-0.5154114,1.1511993-1.1511993,1.1511993h-15.191803         c-9.0222626,0-16.3362427-7.3139877-16.3362427-16.3362541v-0.0067024         c0-9.0223083,7.3140259-16.3363304,16.336319-16.3363304h0.0065918         C174.9673157,45.1613731,182.2813416,52.4753952,182.2813416,61.4977036z"/><path fill="#2dc168" d="M161.018158 61.8692818c0 1.3847389-1.1214447 2.514576-2.5145721 2.514576-1.3848572 0-2.5145874-1.129837-2.5145874-2.514576 0-1.3932457 1.1297302-2.5146332 2.5145874-2.5146332C159.8967133 59.3546486 161.018158 60.4760361 161.018158 61.8692818zM168.6651764 61.8692818c0 1.3847389-1.1214294 2.514576-2.5145721 2.514576-1.3848419 0-2.5145721-1.129837-2.5145721-2.514576 0-1.3932457 1.1297302-2.5146332 2.5145721-2.5146332C167.5437469 59.3546486 168.6651764 60.4760361 168.6651764 61.8692818zM176.3122101 61.8692818c0 1.3847389-1.1214447 2.514576-2.5145874 2.514576-1.3848419 0-2.5145721-1.129837-2.5145721-2.514576 0-1.3932457 1.1297302-2.5146332 2.5145721-2.5146332C175.1907654 59.3546486 176.3122101 60.4760361 176.3122101 61.8692818z"/></g><g><path fill="#5244ef" d="M257.567749,62.3710785c0.1872559,0.2446022,0.1409607,0.5931931-0.1036377,0.7804451        c-0.9931335,0.7602654-1.1831665,2.191082-0.4228821,3.1842308c0.1872253,0.2445831,0.1409607,0.5931931-0.1036377,0.7804489        c-0.2445984,0.187233-0.5932312,0.1409302-0.7804565-0.103653c-0.7602844-0.9931488-2.1911011-1.1831741-3.1842346-0.422905        c-0.2445831,0.187233-0.5931854,0.1409531-0.7804413-0.103653c-0.1872406-0.2445831-0.1409302-0.5932083,0.103653-0.7804413        c0.9931335-0.7602692,1.1831512-2.191082,0.4228821-3.1842155c-0.1872253-0.2445869-0.1409302-0.5932083,0.103653-0.7804451        c0.2445984-0.1872482,0.5932159-0.1409378,0.7804413,0.1036491c0.7602692,0.9931335,2.1910858,1.1831551,3.1842041,0.4228897        C257.0319214,62.0801773,257.3805237,62.1264915,257.567749,62.3710785z"/></g><g><path fill="#3e3ad8" d="M223.4904633,223.0294342c-2.271759,0.0308838-4.1003418,1.9099884-4.0693512,4.1903687         c0.0310059,2.280365,1.9100037,4.1090698,4.1817627,4.0781708c2.2802734-0.0309906,4.1090698-1.9100952,4.0780792-4.1904755         C227.6499481,224.8271332,225.7707367,222.9984436,223.4904633,223.0294342z M223.5792236,229.5572357         c-1.3142853,0.017868-2.3994904-1.0468292-2.4173584-2.3610992s1.0379944-2.4080811,2.3522644-2.4259491         c1.3229828-0.0179901,2.4082031,1.0467072,2.4260712,2.3609772S224.9022064,229.5392456,223.5792236,229.5572357z"/></g><g><path fill="#fff" d="M262.6999817,179.8130035c-2.3065796,0.0313568-4.163208,1.9392548-4.1317139,4.2545776         c0.0314636,2.3153229,1.93927,4.1720428,4.2458496,4.140686c2.3152161-0.0314789,4.1720276-1.9393768,4.140564-4.2546997         C266.9231873,181.6382446,265.0151978,179.7815399,262.6999817,179.8130035z M262.7900696,186.4408417         c-1.3344116,0.0181427-2.4362488-1.0628662-2.4543762-2.3972778c-0.018158-1.3344269,1.053894-2.4449921,2.3883057-2.4631348         c1.3432617-0.0182648,2.4450989,1.0627594,2.4632568,2.397171         C265.2053833,185.3120117,264.1333313,186.4225769,262.7900696,186.4408417z"/></g><g><path fill="#191919" d="M256.2683411,137.3809662c-17.7841339,2.9278107-49.3892975-39.7583923-49.3892975-39.7583923       s-3.8925018-5.5955505,0.9205933-13.1601563c4.8131256-7.5746078-6.4135132-16.8666458-3.3715668-26.6691742       c3.0090179-9.6933174,12.733902-16.887085,26.4056244-13.0218925c0.1490326,0.0439606,0.3078156,0.0882416,0.4668579,0.1324654       c0,0,0.1600647-0.7560158,0.5298309-1.8665657c1.3397217-4.1058159,5.3816376-13.14147,13.789917-7.33564       c9.0567169,6.2632484,0.594162,14.8910789-4.5993805,16.4534378c-0.937851,0.285141-1.7597504,0.3433075-2.3637848,0.1071167       c0,0,0.5522919,0.6749725,1.3301392,1.8961143c0.009201,0.0302238,0.0384216,0.0610428,0.0576324,0.0915337       c2.2371979,3.5107918,6.260498,11.3306465,5.0244293,20.5709877       c-1.6859894,12.5996094,29.1626282,4.7877655,33.7124939,22.5151596       C283.3214417,115.0730286,274.0521851,134.4632416,256.2683411,137.3809662z"/><path fill="#fec6b9" d="M196.8074036 115.8671951c3.2651367-6.8546143 6.2736816-11.388916 6.3259277-11.4662476l-9.1318359-6.1328125c-.2822266.4194336-4.9682617 7.4645996-9.2602539 17.5990601H196.8074036zM240.4712982 226.5958862h10.595932l-12.9100647-84.0378113c-.4398346-2.85849-3.1184235-4.8148651-5.9706116-4.3812561-2.858551.4397736-4.8199005 3.1131134-4.3811188 5.9705353L240.4712982 226.5958862zM207.742218 226.5958862l15.7802887-83.9600983c.5335541-2.8421021-1.3367615-5.5798035-4.1791229-6.113678-2.8428955-.5348663-5.5798645 1.3366394-6.1134033 4.1786652l-16.1434326 85.8951111H207.742218z"/><path fill="#fff" d="M253.1244659 274.4882507c-.2666779.0395203-.533371.0592957-.8000488.0592957-2.5383301 0-4.7704315-1.8470154-5.16539-4.4444275l-5.3925323-35.0714417-.2271423-1.5111389-.2666779-1.738266-.23703-1.5111389-.5630341-3.6740265h10.5974731l.5630188 3.6740265.23703 1.5111389.2666931 1.738266.2271271 1.5111389 5.1456299 33.4812317C257.9440918 271.3771057 255.9885559 274.0438538 253.1244659 274.4882507zM207.7420044 226.5971069l-.6913147 3.6740265-.2864532 1.5111389-.326004 1.738266-.2864532 1.5111389-5.8962402 31.377533c-.4641724 2.5185547-2.6666107 4.2666016-5.1357269 4.2666016-.326004 0-.6520081-.029541-.9777679-.0887451-2.834671-.5333557-4.7111053-3.269165-4.1777496-6.1136169l5.5307007-29.4417725.2864532-1.5111389.326004-1.738266.2864532-1.5111389.6913147-3.6740265H207.7420044z"/><path fill="#33459c" d="M203.8348846,190.6909485h10.6504364l2.6304626-13.988266                           c0.7094879-3.7728882,4.0045776-6.5061035,7.8435974-6.5061035h0.0000153                           c3.9393463,0,7.2894592,2.8742218,7.8883209,6.7677917l2.1112671,13.7265778h10.587616                           l-7.3935394-48.1312714c-0.4398193-2.8589478-3.1103363-4.8169098-5.9692993-4.3771515                           c-2.8589478,0.4397583-4.8172913,3.1100311-4.3774567,5.9689789l0.4921722,3.1734314h-5.6550751                           l0.8796387-4.6916199c0.5341034-2.8379974-1.3404388-5.5818939-4.1784821-6.1157379                           c-2.8484802-0.5236206-5.5817719,1.3402405-6.1158752,4.1782379L203.8348846,190.6909485z"/><path fill="#ff9d45" d="M272.3578491 276.0506897c-.2612305.9768372-1.179718 1.6377563-2.1838684 1.6359863l-21.7573395-.0578308c-1.263916-.0052795-2.2658539-1.0229187-2.2724152-2.2869263l.0414276-11.8117065 7.9595337.1430664c2.5362701-4.9859314 5.9299469-1.7625427 6.9841156-1.0986328 2.4478455 1.5450745 4.337616 4.1929321 8.8527222 7.4669189C272.7545166 272.0516968 272.7570801 274.4850464 272.3578491 276.0506897zM174.6307983 276.0506897c.2612152.9768372 1.179718 1.6377563 2.1838531 1.6359863l21.7573547-.0578308c1.263916-.0052795 2.2658539-1.0229187 2.2724152-2.2869263l-.0414276-11.8117065-7.9595337.1430664c-2.5362701-4.9859314-5.9299622-1.7625427-6.9841156-1.0986328-2.4478455 1.5450745-4.3376007 4.1929321-8.8527222 7.4669189C174.2341461 272.0516968 174.2315674 274.4850464 174.6307983 276.0506897z"/><g><path fill="#ffe05c" d="M205.3965149,101.5319901v56.3603439h37.9160156l-3.1616211-53.2255783                          c2.5058594,1.9803467,4.1120758,4.386795,6.2370758,7.3426666l8.4428558-7.0965729                          c-1.940918-3.0479126-4.6965332-7.2689209-6.7414551-9.4788208                          c-3.1210938-3.3678589-6.4658203-5.1759033-10.9301758-6.2426147                          c-0.0195313-0.0098267-0.0395508-0.0098267-0.0693359-0.0197144                          c-2.5185547-0.602478-5.0761719-1.0765381-7.6733398-1.4419556                          c-0.1879883-0.0296021-0.3857422-0.0493774-0.5732422-0.0790405                          c-4.4838867-0.5925903-9.0668945-0.8197021-13.7382813-0.7210083                          c-0.3852539,0.0098877-0.7802734,0.0197754-1.175293,0.0296631                          c-1.5703125,0.0394897-3.140625,0.1283569-4.730957,0.2469482                          c-2.5673828,0.1974487-5.0664063,1.0073242-7.2294922,2.4196777                          c-3.564209,2.3360596-6.4677582,6.1422806-9.5715179,11.1911697l9.6403656,5.3261032                          C203.2844543,104.2087479,204.4717102,102.4601517,205.3965149,101.5319901z"/></g><g><path fill="#fff" d="M228.8434448,87.6506882                          c-0.5234833,6.0148163-3.7827759,8.2172546-6.8344727,8.2172546                          c-3.1903229,0-6.5778961-2.3703232-6.9039001-8.9382172                          C219.7766418,86.830986,224.3594666,87.0581207,228.8434448,87.6506882z"/><path fill="#fec6b9" d="M217.5431976,85.8761139c0,5.2674026,2.0001373,7.5188751,4.4612579,7.5188751                          c2.4608765,0,4.4507904-2.2514725,4.4507904-7.5188751c0-1.6025696-0.1780853-3.2884903-0.502655-4.8695831                          c-1.2359314,0.5757828-2.5658264,0.9004898-3.9481354,0.9004898                          c-1.3929138,0-2.7229309-0.324707-3.9481201-0.8902588                          C217.7316284,82.597847,217.5431976,84.2842789,217.5431976,85.8761139z"/></g><g><path fill="#efa89c" d="M220.8726959,83.7681656                          c2.2639771-0.0562363,4.2264862,1.6590576,4.2315063,3.9237289                          c0.0000458,0.016037,0.000061,0.0320663,0.000061,0.0480881                          c0,2.084259-0.3142242,3.6863174-0.8483276,4.8695755                          c1.3195343-1.0574722,2.1993103-3.2250824,2.1993103-6.7334442                          c0-1.6025696-0.1780853-3.2884903-0.502655-4.8695831                          c-1.2359314,0.5757828-2.5658264,0.9004898-3.9481354,0.9004898                          c-1.3929138,0-2.7229309-0.324707-3.9481201-0.8902588                          c-0.146759,0.7332687-0.2722931,1.4977417-0.3561554,2.262207                          c0.9320526,0.3139648,1.9270172,0.4919205,2.9532928,0.4919205                          C220.7266998,83.7708893,220.7997742,83.7699738,220.8726959,83.7681656z"/></g><g><polygon fill="#ff6464" points="207.051 230.271 206.764 231.782 196.107 231.782 196.394 230.271"/><polygon fill="#ff6464" points="251.87 231.782 241.273 231.782 241.036 230.271 251.633 230.271"/><g><polygon fill="#ff6464" points="206.438 233.521 206.152 235.032 195.495 235.032 195.781 233.521"/><polygon fill="#ff6464" points="252.364 235.032 241.766 235.032 241.539 233.521 252.137 233.521"/></g></g><g><path fill="#fec6b9" d="M185.2055511,114.7862244c0,0-2.8644409,8.0428391-4.6498566,13.863266        c-1.7854156,5.8204193,25.8992004-2.5309753,16.5308533-8.8276596S185.2055511,114.7862244,185.2055511,114.7862244z"/></g><g><path fill="#fff" d="M227.6633148,114.3214874l4.3873291,27.0929871        c0.2974396,1.836792-1.1207275,3.503067-2.9814301,3.503067h-37.6956329        c-1.4816895,0-2.7445831-1.0748291-2.9814301-2.5374603l-4.3873291-27.0929947        c-0.2974396-1.8367844,1.1207123-3.503067,2.9814301-3.503067h37.6956329        C226.1635742,111.7840195,227.4264526,112.8588562,227.6633148,114.3214874z"/></g><g><path fill="#5244ef" d="M204.5045013,128.3544617c0.2976074,1.9463348,2.1115265,3.5198975,4.0653229,3.5198975         c1.9461517,0,3.2790375-1.5735626,2.9814301-3.5198822c-0.2987518-1.9537964-2.1128387-3.5272598-4.0589905-3.5272598         C205.5384674,124.8272095,204.2057495,126.4006805,204.5045013,128.3544617z"/><path fill="#fff" d="M206.3673706,128.3525238c0.1402588,0.9172821,0.9951324,1.6588898,1.9159393,1.6588898         c0.9172058,0,1.5453796-0.7416077,1.4051208-1.6588898c-0.1407928-0.9208069-0.9957581-1.6623688-1.9129639-1.6623688         C206.85466,126.690155,206.2265625,127.4317169,206.3673706,128.3525238z"/></g><g><path fill="#fec6b9" d="M181.4094696,127.4039459l-0.926178,1.5788727c0,0-1.9463501,5.8803711,3.9492493,8.9521637         c1.2179413,0.6345825,2.700119,0.4515839,3.800415-0.3702698c0.1438751-0.1074677,0.2962494-0.2196198,0.4589996-0.3360596         c2.9205475-2.0894928,3.4727936-6.2919617,0.9936066-9.0750427         C187.5919037,125.8033142,183.9766388,125.582695,181.4094696,127.4039459z"/></g><g><path fill="#fec6b9" d="M251.1061707,151.1811218c-14.5819397,0-24.6403656-11.9449158-29.4080353-19.2073669         c-1.8296509-2.7870636-0.7926331-6.5410843,2.2112274-7.9875183v-0.0000076         c2.4705811-1.1896362,5.4606476-0.3937225,6.9638214,1.8996277         c3.9123535,5.9690018,12.3525238,16.1239243,23.4468536,13.9783707         c2.0332031-0.3930664,2.3144531-1.1166992,2.4501953-1.4638672         c1.9277344-4.9511719-5.4873047-20.0478516-13.6220703-31.0415039l8.8388672-6.5483398         c3.4169922,4.6113281,20.2041016,28.2871094,15.0351563,41.5766602         C264.4712524,148.9449005,258.0575562,151.1811218,251.1061707,151.1811218z"/></g><g><path fill="#ffe05c" d="M240.1509094,104.6667557c2.5058594,1.9803467,4.1120758,4.386795,6.2370758,7.3426666         l8.4428558-7.0965729c-1.940918-3.0479126-4.6965332-7.2689209-6.7414551-9.4788208         c-3.1210938-3.3678589-6.4658203-5.1759033-10.9301758-6.2426147         c-0.0195313-0.0098267-0.0395508-0.0098267-0.0693359-0.0197144         C234.5713196,88.5692215,240.1509094,104.6667557,240.1509094,104.6667557z"/></g><g><path fill="#fec6b9" d="M226.8248596,81.4121552c4.2878723-2.4015656,7.1664429-7.7149963,7.5740051-13.553093         c1.5018616-0.352356,2.3649445-2.1160736,1.9324799-3.9688148c-0.4324799-1.8527412-2.0169678-3.0602646-3.5097351-2.7129936         c-1.461441,0.3413048-0.1741486,3.7650681-1.9941864,3.8170395         c-1.8286438,0.0522232-1.2721405-8.9968414-9.1957245-8.1061249         c-7.3000336,0.7017136-9.2266693-3.9221725-9.2266693-3.9221725         c-3.8017578,4.6199493-4.9034576,12.3367004-2.2933807,19.2198181         C213.3815002,80.8293076,220.4549255,84.9798584,226.8248596,81.4121552z"/><path fill="#efa89c" d="M219.8825684,78.5301208c-0.7099609,0-1.3740234-0.1660156-1.9902344-0.496582          c-0.7705078-0.4067383-1.4472656-1.0585938-2.0097656-1.9360352          c-0.1494141-0.2329102-0.0810547-0.5419922,0.1513672-0.690918          c0.2285156-0.1494141,0.5400391-0.0825195,0.6904297,0.1508789c0.4677734,0.7304688,1.0195313,1.2666016,1.6376953,1.59375          c0.7470703,0.3999023,1.5976563,0.4833984,2.5244141,0.25c1.4775391-0.4428711,2.1914063-1.7456055,2.5263672-2.7597656          c0.0859375-0.2626953,0.3652344-0.4067383,0.6318359-0.3178711          c0.2617188,0.0864258,0.4042969,0.3691406,0.3173828,0.6313477          c-0.3349609,1.0151367-1.1982422,2.8081055-3.2099609,3.4101563          C220.713623,78.4754333,220.2907715,78.5301208,219.8825684,78.5301208z"/><path fill="#191919" d="M215.3023682 65.1270218c.276413.6174698-.0013885 1.3457489-.6303101 1.6272888-.6174774.2764206-1.3457184-.0014801-1.6221466-.6189575-.2815094-.6288452-.0037079-1.3571167.6137695-1.6335373C214.2926025 64.2202682 215.0208435 64.4981766 215.3023682 65.1270218zM223.9880829 63.8923607c.2764282.617466-.0013733 1.3457451-.6302948 1.6272926-.6174774.2764206-1.3457184-.0014877-1.6221466-.6189575-.2815247-.6288452-.0037079-1.3571243.6137543-1.6335449C222.9783173 62.9856071 223.7065582 63.2635117 223.9880829 63.8923607z"/></g><g><path fill="#ff6464" d="M238.657135,52.2621651c-3.1772156-4.125721-4.6951294-5.5358772-7.3565826-7.3583488        c0,0,0.1600647-0.7560158,0.5298309-1.8665657c1.5782623,0.8322754,6.0210114,3.4884491,9.1905365,9.1177979        C240.0830688,52.4401894,239.2611694,52.4983559,238.657135,52.2621651z"/></g></g></g></svg>